font.ufo
<glyph name="question" format="1">
  <advance width="584"/>
  <unicode hex="003F"/>
  <outline>
    <contour>
      <point x="241" y="409" type="line"/>
      <point x="411" y="453"/>
      <point x="578" y="531"/>
      <point x="588" y="662" type="curve" smooth="yes"/>
      <point x="595" y="767"/>
      <point x="519" y="863"/>
      <point x="420" y="863" type="curve" smooth="yes"/>
      <point x="327" y="863"/>
      <point x="189" y="808"/>
      <point x="90" y="720" type="curve"/>
      <point x="97" y="644"/>
      <point x="132" y="610"/>
      <point x="148" y="610" type="curve" smooth="yes"/>
      <point x="157" y="610"/>
      <point x="166" y="613"/>
      <point x="178" y="619" type="curve"/>
      <point x="163" y="687" type="line"/>
      <point x="242" y="742"/>
      <point x="370" y="792"/>
      <point x="477" y="797" type="curve"/>
      <point x="510" y="772"/>
      <point x="525" y="732"/>
      <point x="523" y="687" type="curve" smooth="yes"/>
      <point x="517" y="592"/>
      <point x="377" y="512"/>
      <point x="206" y="468" type="curve"/>
      <point x="187" y="454"/>
      <point x="168" y="428"/>
      <point x="167" y="400" type="curve"/>
      <point x="225" y="186" type="line" smooth="yes"/>
      <point x="230" y="165"/>
      <point x="239" y="157"/>
      <point x="267" y="166" type="curve"/>
    </contour>
    <contour>
      <point x="243" y="-3" type="curve" smooth="yes"/>
      <point x="272" y="-3"/>
      <point x="315" y="22"/>
      <point x="338" y="52" type="curve"/>
      <point x="335" y="84"/>
      <point x="307" y="121"/>
      <point x="283" y="121" type="curve"/>
      <point x="249" y="117"/>
      <point x="208" y="75"/>
      <point x="201" y="39" type="curve"/>
      <point x="203" y="14"/>
      <point x="220" y="-3"/>
    </contour>
  </outline>
</glyph>
<glyph name="uni0136" format="1">
  <advance width="588"/>
  <unicode hex="0136"/>
  <outline>
    <contour>
      <point x="209" y="-246" type="curve"/>
      <point x="246" y="-211"/>
      <point x="296" y="-147"/>
      <point x="302" y="-88" type="curve"/>
      <point x="288" y="-48"/>
      <point x="246" y="-26"/>
      <point x="208" y="-57" type="curve"/>
      <point x="228" y="-158" type="line"/>
      <point x="180" y="-233" type="line"/>
      <point x="186" y="-243"/>
      <point x="199" y="-247"/>
    </contour>
    <component base="K"/>
  </outline>
</glyph>
<glyph name="uni0137" format="1">
  <advance width="486"/>
  <unicode hex="0137"/>
  <outline>
    <contour>
      <point x="166" y="-246" type="curve"/>
      <point x="203" y="-211"/>
      <point x="253" y="-147"/>
      <point x="259" y="-88" type="curve"/>
      <point x="245" y="-48"/>
      <point x="203" y="-26"/>
      <point x="165" y="-57" type="curve"/>
      <point x="185" y="-158" type="line"/>
      <point x="137" y="-233" type="line"/>
      <point x="143" y="-243"/>
      <point x="156" y="-247"/>
    </contour>
    <component base="k"/>
  </outline>
</glyph>
<glyph name="uni013B" format="1">
  <advance width="446"/>
  <unicode hex="013B"/>
  <outline>
    <contour>
      <point x="159" y="-246" type="curve"/>
      <point x="196" y="-211"/>
      <point x="246" y="-147"/>
      <point x="252" y="-88" type="curve"/>
      <point x="238" y="-48"/>
      <point x="196" y="-26"/>
      <point x="158" y="-57" type="curve"/>
      <point x="178" y="-158" type="line"/>
      <point x="130" y="-233" type="line"/>
      <point x="136" y="-243"/>
      <point x="149" y="-247"/>
    </contour>
    <component base="L"/>
  </outline>
</glyph>
<glyph name="uni013C" format="1">
  <advance width="245"/>
  <unicode hex="013C"/>
  <outline>
    <contour>
      <point x="34" y="-246" type="curve"/>
      <point x="71" y="-211"/>
      <point x="121" y="-147"/>
      <point x="127" y="-88" type="curve"/>
      <point x="113" y="-48"/>
      <point x="71" y="-26"/>
      <point x="33" y="-57" type="curve"/>
      <point x="53" y="-158" type="line"/>
      <point x="5" y="-233" type="line"/>
      <point x="11" y="-243"/>
      <point x="24" y="-247"/>
    </contour>
    <component base="l"/>
  </outline>
</glyph>
<glyph name="uni0145" format="1">
  <advance width="626"/>
  <unicode hex="0145"/>
  <outline>
    <contour>
      <point x="263" y="-246" type="curve"/>
      <point x="300" y="-211"/>
      <point x="350" y="-147"/>
      <point x="356" y="-88" type="curve"/>
      <point x="342" y="-48"/>
      <point x="300" y="-26"/>
      <point x="262" y="-57" type="curve"/>
      <point x="282" y="-158" type="line"/>
      <point x="234" y="-233" type="line"/>
      <point x="240" y="-243"/>
      <point x="253" y="-247"/>
    </contour>
    <component base="N"/>
  </outline>
</glyph>
<glyph name="uni0157" format="1">
  <advance width="382"/>
  <unicode hex="0157"/>
  <outline>
    <contour>
      <point x="7" y="-246" type="curve"/>
      <point x="44" y="-211"/>
      <point x="94" y="-147"/>
      <point x="100" y="-88" type="curve"/>
      <point x="86" y="-48"/>
      <point x="44" y="-26"/>
      <point x="6" y="-57" type="curve"/>
      <point x="26" y="-158" type="line"/>
      <point x="-22" y="-233" type="line"/>
      <point x="-16" y="-243"/>
      <point x="-3" y="-247"/>
    </contour>
    <component base="r"/>
  </outline>
</glyph>
<glyph name="uni0219" format="1">
  <advance width="464"/>
  <unicode hex="0219"/>
  <outline>
    <contour>
      <point x="142" y="-246" type="curve"/>
      <point x="179" y="-211"/>
      <point x="229" y="-147"/>
      <point x="235" y="-88" type="curve"/>
      <point x="221" y="-48"/>
      <point x="179" y="-26"/>
      <point x="141" y="-57" type="curve"/>
      <point x="161" y="-158" type="line"/>
      <point x="113" y="-233" type="line"/>
      <point x="119" y="-243"/>
      <point x="132" y="-247"/>
    </contour>
    <component base="s"/>
  </outline>
</glyph>
<glyph name="uni021A" format="1">
  <advance width="537"/>
  <unicode hex="021A"/>
  <outline>
    <contour>
      <point x="177" y="-246" type="curve"/>
      <point x="214" y="-211"/>
      <point x="264" y="-147"/>
      <point x="270" y="-88" type="curve"/>
      <point x="256" y="-48"/>
      <point x="214" y="-26"/>
      <point x="176" y="-57" type="curve"/>
      <point x="196" y="-158" type="line"/>
      <point x="148" y="-233" type="line"/>
      <point x="154" y="-243"/>
      <point x="167" y="-247"/>
    </contour>
    <component base="T"/>
  </outline>
</glyph>
<glyph name="dvCandrabindu" format="1">
  <advance width="0"/>
  <unicode hex="0901"/>
  <outline>
    <contour>
      <point x="-45" y="649" type="move" name="_abvm_Ekaar"/>
    </contour>
    <contour>
      <point x="42" y="779" type="curve" smooth="yes"/>
      <point x="69" y="779"/>
      <point x="91" y="801"/>
      <point x="91" y="828" type="curve" smooth="yes"/>
      <point x="91" y="856"/>
      <point x="69" y="878"/>
      <point x="42" y="878" type="curve" smooth="yes"/>
      <point x="14" y="878"/>
      <point x="-8" y="856"/>
      <point x="-8" y="828" type="curve" smooth="yes"/>
      <point x="-8" y="801"/>
      <point x="14" y="779"/>
    </contour>
    <contour>
      <point x="153" y="836" type="curve"/>
      <point x="122" y="774"/>
      <point x="76" y="736"/>
      <point x="12" y="728" type="curve"/>
      <point x="-32" y="761"/>
      <point x="-71" y="825"/>
      <point x="-76" y="896" type="curve"/>
      <point x="-103" y="906"/>
      <point x="-125" y="896"/>
      <point x="-145" y="867" type="curve"/>
      <point x="-126" y="786"/>
      <point x="-47" y="689"/>
      <point x="11" y="689" type="curve" smooth="yes"/>
      <point x="83" y="689"/>
      <point x="170" y="742"/>
      <point x="205" y="802" type="curve"/>
      <point x="198" y="826"/>
      <point x="181" y="841"/>
    </contour>
  </outline>
</glyph>
<glyph name="dvNNA" format="1">
  <advance width="593"/>
  <unicode hex="0923"/>
  <outline>
    <contour>
      <point x="746" y="608" type="curve"/>
      <point x="734" y="619" type="line"/>
      <point x="241" y="619" type="line"/>
      <point x="162" y="568"/>
      <point x="51" y="421"/>
      <point x="51" y="354" type="curve" smooth="yes"/>
      <point x="51" y="284"/>
      <point x="121" y="184"/>
      <point x="183" y="184" type="curve" smooth="yes"/>
      <point x="238" y="184"/>
      <point x="349" y="237"/>
      <point x="388" y="349" type="curve"/>
      <point x="398" y="422"/>
      <point x="382" y="497"/>
      <point x="350" y="573" type="curve"/>
      <point x="721" y="573" type="line"/>
      <point x="734" y="581"/>
      <point x="742" y="595"/>
    </contour>
    <contour>
      <point x="279" y="573" type="line"/>
      <point x="314" y="491"/>
      <point x="325" y="431"/>
      <point x="325" y="370" type="curve"/>
      <point x="311" y="302"/>
      <point x="249" y="253"/>
      <point x="189" y="235" type="curve"/>
      <point x="146" y="258"/>
      <point x="126" y="301"/>
      <point x="121" y="349" type="curve"/>
      <point x="128" y="416"/>
      <point x="190" y="512"/>
      <point x="263" y="573" type="curve"/>
    </contour>
    <contour>
      <point x="635" y="619" type="line"/>
      <point x="619" y="641"/>
      <point x="594" y="649"/>
      <point x="548" y="649" type="curve"/>
      <point x="401" y="23" type="line"/>
      <point x="415" y="6"/>
      <point x="439" y="-5"/>
      <point x="482" y="0" type="curve"/>
      <point x="553" y="441" type="line"/>
    </contour>
  </outline>
</glyph>
<glyph name="dvmI" format="1">
  <advance width="206"/>
  <unicode hex="093F"/>
  <outline>
    <contour>
      <point x="473" y="671" type="move" name="abvm_Reph_alt"/>
    </contour>
    <contour>
      <point x="188" y="894" type="curve"/>
      <point x="144" y="593" type="line"/>
      <point x="5" y="23" type="line"/>
      <point x="19" y="5"/>
      <point x="43" y="-4"/>
      <point x="86" y="0" type="curve"/>
      <point x="122" y="263"/>
      <point x="213" y="661"/>
      <point x="262" y="877" type="curve"/>
      <point x="269" y="883" type="line"/>
      <point x="328" y="836"/>
      <point x="394" y="745"/>
      <point x="458" y="646" type="curve"/>
      <point x="488" y="651"/>
      <point x="509" y="665"/>
      <point x="509" y="689" type="curve"/>
      <point x="455" y="777"/>
      <point x="327" y="945"/>
      <point x="287" y="945" type="curve" smooth="yes"/>
      <point x="251" y="945"/>
      <point x="209" y="921"/>
    </contour>
    <contour>
      <point x="320" y="573" type="line"/>
      <point x="333" y="581"/>
      <point x="341" y="595"/>
      <point x="345" y="608" type="curve"/>
      <point x="333" y="619" type="line"/>
      <point x="34" y="619" type="line"/>
      <point x="21" y="611"/>
      <point x="13" y="597"/>
      <point x="9" y="584" type="curve"/>
      <point x="21" y="573" type="line"/>
    </contour>
  </outline>
</glyph>
<glyph name="dvOm" format="1">
  <advance width="1066"/>
  <unicode hex="0950"/>
  <outline>
    <contour>
      <point x="495" y="303" type="line"/>
      <point x="511" y="275" type="line"/>
      <point x="611" y="289" type="line"/>
      <point x="706" y="374"/>
      <point x="750" y="478"/>
      <point x="817" y="536" type="curve"/>
      <point x="869" y="475"/>
      <point x="889" y="383"/>
      <point x="898" y="291" type="curve"/>
      <point x="845" y="175"/>
      <point x="779" y="106"/>
      <point x="650" y="58" type="curve"/>
      <point x="634" y="33"/>
      <point x="643" y="14"/>
      <point x="675" y="0" type="curve"/>
      <point x="829" y="62"/>
      <point x="925" y="181"/>
      <point x="951" y="291" type="curve"/>
      <point x="946" y="398"/>
      <point x="918" y="557"/>
      <point x="820" y="597" type="curve"/>
      <point x="730" y="563"/>
      <point x="650" y="368"/>
      <point x="571" y="320" type="curve"/>
    </contour>
    <contour>
      <point x="438" y="333" type="line"/>
      <point x="474" y="311"/>
      <point x="531" y="250"/>
      <point x="542" y="208" type="curve"/>
      <point x="514" y="136"/>
      <point x="428" y="67"/>
      <point x="333" y="47" type="curve"/>
      <point x="236" y="92"/>
      <point x="191" y="171"/>
      <point x="149" y="273" type="curve"/>
      <point x="117" y="281"/>
      <point x="92" y="267"/>
      <point x="79" y="226" type="curve"/>
      <point x="124" y="132"/>
      <point x="206" y="44"/>
      <point x="325" y="0" type="curve"/>
      <point x="474" y="15"/>
      <point x="608" y="141"/>
      <point x="608" y="215" type="curve" smooth="yes"/>
      <point x="608" y="255"/>
      <point x="529" y="325"/>
      <point x="469" y="348" type="curve"/>
    </contour>
    <contour>
      <point x="359" y="294" type="curve"/>
      <point x="480" y="321"/>
      <point x="608" y="406"/>
      <point x="633" y="518" type="curve"/>
      <point x="614" y="571"/>
      <point x="558" y="632"/>
      <point x="488" y="649" type="curve"/>
      <point x="388" y="636"/>
      <point x="328" y="601"/>
      <point x="262" y="557" type="curve"/>
      <point x="250" y="536"/>
      <point x="266" y="513"/>
      <point x="307" y="505" type="curve"/>
      <point x="364" y="550"/>
      <point x="421" y="590"/>
      <point x="479" y="600" type="curve"/>
      <point x="515" y="586"/>
      <point x="548" y="553"/>
      <point x="566" y="509" type="curve"/>
      <point x="524" y="412"/>
      <point x="477" y="380"/>
      <point x="342" y="344" type="curve"/>
      <point x="325" y="320"/>
      <point x="338" y="303"/>
    </contour>
    <contour>
      <point x="726" y="702" type="curve" smooth="yes"/>
      <point x="753" y="702"/>
      <point x="775" y="724"/>
      <point x="775" y="751" type="curve" smooth="yes"/>
      <point x="775" y="779"/>
      <point x="753" y="801"/>
      <point x="726" y="801" type="curve" smooth="yes"/>
      <point x="698" y="801"/>
      <point x="676" y="779"/>
      <point x="676" y="751" type="curve" smooth="yes"/>
      <point x="676" y="724"/>
      <point x="698" y="702"/>
    </contour>
    <contour>
      <point x="837" y="759" type="curve"/>
      <point x="806" y="697"/>
      <point x="760" y="659"/>
      <point x="696" y="651" type="curve"/>
      <point x="652" y="684"/>
      <point x="613" y="748"/>
      <point x="608" y="819" type="curve"/>
      <point x="581" y="829"/>
      <point x="559" y="819"/>
      <point x="539" y="790" type="curve"/>
      <point x="558" y="709"/>
      <point x="637" y="612"/>
      <point x="695" y="612" type="curve" smooth="yes"/>
      <point x="767" y="612"/>
      <point x="854" y="665"/>
      <point x="889" y="725" type="curve"/>
      <point x="882" y="749"/>
      <point x="865" y="764"/>
    </contour>
  </outline>
</glyph>
<glyph name="indianrupee" format="1">
  <advance width="508"/>
  <unicode hex="20B9"/>
  <outline>
    <contour>
      <point x="87" y="302" type="curve"/>
      <point x="120" y="201"/>
      <point x="206" y="89"/>
      <point x="303" y="0" type="curve"/>
      <point x="336" y="0"/>
      <point x="359" y="30"/>
      <point x="368" y="58" type="curve"/>
      <point x="201" y="174" type="line"/>
      <point x="149" y="294" type="line"/>
      <point x="326" y="292"/>
      <point x="425" y="389"/>
      <point x="425" y="527" type="curve" smooth="yes"/>
      <point x="425" y="599"/>
      <point x="389" y="700"/>
      <point x="314" y="700" type="curve" smooth="yes"/>
      <point x="284" y="700"/>
      <point x="267" y="689"/>
      <point x="255" y="670" type="curve"/>
      <point x="343" y="650"/>
      <point x="361" y="591"/>
      <point x="361" y="520" type="curve" smooth="yes"/>
      <point x="361" y="479"/>
      <point x="356" y="428"/>
      <point x="308" y="376" type="curve"/>
      <point x="247" y="343"/>
      <point x="178" y="333"/>
      <point x="132" y="355" type="curve"/>
      <point x="114" y="350"/>
      <point x="94" y="332"/>
    </contour>
    <contour>
      <point x="551" y="691" type="curve"/>
      <point x="328" y="677" type="line"/>
      <point x="110" y="681" type="line"/>
      <point x="94" y="657"/>
      <point x="91" y="640"/>
      <point x="102" y="627" type="curve"/>
      <point x="539" y="634" type="line"/>
      <point x="559" y="661"/>
      <point x="563" y="682"/>
    </contour>
    <contour>
      <point x="523" y="535" type="curve"/>
      <point x="300" y="521" type="line"/>
      <point x="82" y="525" type="line"/>
      <point x="66" y="501"/>
      <point x="63" y="484"/>
      <point x="74" y="471" type="curve"/>
      <point x="511" y="478" type="line"/>
      <point x="531" y="505"/>
      <point x="535" y="526"/>
    </contour>
  </outline>
</glyph>
<glyph name="dvCH_R_YA" format="1">
  <advance width="1072"/>
  <outline>
    <contour>
      <point x="287" y="-149" type="curve"/>
      <point x="246" y="-99"/>
      <point x="237" y="-67"/>
      <point x="233" y="3" type="curve"/>
      <point x="213" y="23"/>
      <point x="195" y="30"/>
      <point x="173" y="30" type="curve"/>
      <point x="116" y="-5"/>
      <point x="67" y="-71"/>
      <point x="24" y="-139" type="curve"/>
      <point x="23" y="-160"/>
      <point x="38" y="-186"/>
      <point x="87" y="-183" type="curve"/>
      <point x="106" y="-111"/>
      <point x="139" y="-52"/>
      <point x="184" y="-15" type="curve"/>
      <point x="189" y="-18" type="line"/>
      <point x="184" y="-79"/>
      <point x="211" y="-139"/>
      <point x="252" y="-183" type="curve"/>
      <point x="274" y="-179"/>
      <point x="289" y="-167"/>
    </contour>
    <contour>
      <point x="1114" y="619" type="line"/>
      <point x="1098" y="641"/>
      <point x="1073" y="649"/>
      <point x="1027" y="649" type="curve"/>
      <point x="952" y="328" type="line"/>
      <point x="971" y="313" type="line"/>
      <point x="932" y="241" type="line"/>
      <point x="880" y="23" type="line"/>
      <point x="894" y="6"/>
      <point x="918" y="-5"/>
      <point x="961" y="0" type="curve"/>
      <point x="1032" y="441" type="line"/>
    </contour>
    <contour>
      <point x="1200" y="573" type="line"/>
      <point x="1213" y="581"/>
      <point x="1221" y="595"/>
      <point x="1225" y="608" type="curve"/>
      <point x="1213" y="619" type="line"/>
      <point x="584" y="619" type="line"/>
      <point x="571" y="611"/>
      <point x="563" y="597"/>
      <point x="559" y="584" type="curve"/>
      <point x="571" y="573" type="line"/>
    </contour>
    <contour>
      <point x="638" y="550" type="curve"/>
      <point x="636" y="533"/>
      <point x="651" y="521"/>
      <point x="670" y="516" type="curve"/>
      <point x="708" y="547"/>
      <point x="743" y="568"/>
      <point x="782" y="568" type="curve" smooth="yes"/>
      <point x="802" y="568"/>
      <point x="828" y="556"/>
      <point x="828" y="536" type="curve" smooth="yes"/>
      <point x="828" y="442"/>
      <point x="566" y="358"/>
      <point x="566" y="274" type="curve" smooth="yes"/>
      <point x="566" y="225"/>
      <point x="655" y="151"/>
      <point x="708" y="151" type="curve" smooth="yes"/>
      <point x="788" y="151"/>
      <point x="940" y="276"/>
      <point x="1005" y="385" type="curve"/>
      <point x="972" y="413" type="line"/>
      <point x="917" y="315"/>
      <point x="769" y="201"/>
      <point x="718" y="201" type="curve" smooth="yes"/>
      <point x="681" y="201"/>
      <point x="636" y="244"/>
      <point x="636" y="270" type="curve" smooth="yes"/>
      <point x="636" y="327"/>
      <point x="898" y="432"/>
      <point x="898" y="539" type="curve" smooth="yes"/>
      <point x="898" y="584"/>
      <point x="828" y="619"/>
      <point x="779" y="619" type="curve" smooth="yes"/>
      <point x="735" y="619"/>
      <point x="668" y="584"/>
    </contour>
    <contour>
      <point x="657" y="573" type="line"/>
      <point x="670" y="581"/>
      <point x="678" y="595"/>
      <point x="682" y="608" type="curve"/>
      <point x="670" y="619" type="line"/>
      <point x="39" y="619" type="line"/>
      <point x="26" y="611"/>
      <point x="18" y="597"/>
      <point x="14" y="584" type="curve"/>
      <point x="26" y="573" type="line"/>
    </contour>
    <contour>
      <point x="480" y="137" type="curve"/>
      <point x="483" y="203"/>
      <point x="433" y="363"/>
      <point x="444" y="428" type="curve" smooth="yes"/>
      <point x="447" y="442"/>
      <point x="453" y="452"/>
      <point x="463" y="455" type="curve"/>
      <point x="483" y="446"/>
      <point x="504" y="425"/>
      <point x="503" y="412" type="curve" smooth="yes"/>
      <point x="499" y="329"/>
      <point x="282" y="160"/>
      <point x="140" y="119" type="curve"/>
      <point x="129" y="128" type="line"/>
      <point x="170" y="189"/>
      <point x="240" y="267"/>
      <point x="298" y="317" type="curve"/>
      <point x="305" y="352"/>
      <point x="288" y="380"/>
      <point x="246" y="391" type="curve"/>
      <point x="200" y="380"/>
      <point x="150" y="366"/>
      <point x="110" y="363" type="curve"/>
      <point x="102" y="377" type="line"/>
      <point x="151" y="432"/>
      <point x="247" y="519"/>
      <point x="344" y="573" type="curve"/>
      <point x="312" y="615" type="line"/>
      <point x="213" y="565"/>
      <point x="92" y="460"/>
      <point x="38" y="392" type="curve"/>
      <point x="34" y="360"/>
      <point x="62" y="322"/>
      <point x="95" y="304" type="curve"/>
      <point x="143" y="307"/>
      <point x="196" y="324"/>
      <point x="233" y="335" type="curve"/>
      <point x="237" y="330" type="line"/>
      <point x="177" y="288"/>
      <point x="118" y="216"/>
      <point x="64" y="139" type="curve"/>
      <point x="63" y="104"/>
      <point x="101" y="74"/>
      <point x="140" y="58" type="curve"/>
      <point x="277" y="93"/>
      <point x="558" y="284"/>
      <point x="565" y="414" type="curve" smooth="yes"/>
      <point x="567" y="451"/>
      <point x="517" y="496"/>
      <point x="478" y="512" type="curve"/>
      <point x="438" y="509"/>
      <point x="401" y="475"/>
      <point x="389" y="458" type="curve"/>
      <point x="367" y="355"/>
      <point x="420" y="261"/>
      <point x="430" y="136" type="curve"/>
      <point x="397" y="84"/>
      <point x="334" y="48"/>
      <point x="274" y="15" type="curve"/>
      <point x="269" y="3"/>
      <point x="273" y="-12"/>
      <point x="304" y="-30" type="curve"/>
      <point x="369" y="2"/>
      <point x="477" y="82"/>
    </contour>
  </outline>
</glyph>
<glyph name="dvCH_VA" format="1">
  <advance width="600"/>
  <outline>
    <contour>
      <point x="292" y="-202" type="move" name="blwm"/>
    </contour>
    <contour>
      <point x="466" y="649" type="move" name="abvm_Ekaar"/>
    </contour>
    <contour>
      <point x="657" y="573" type="line"/>
      <point x="670" y="581"/>
      <point x="678" y="595"/>
      <point x="682" y="608" type="curve"/>
      <point x="670" y="619" type="line"/>
      <point x="39" y="619" type="line"/>
      <point x="26" y="611"/>
      <point x="18" y="597"/>
      <point x="14" y="584" type="curve"/>
      <point x="26" y="573" type="line"/>
    </contour>
    <contour>
      <point x="464" y="179" type="curve"/>
      <point x="456" y="298"/>
      <point x="417" y="430"/>
      <point x="432" y="498" type="curve"/>
      <point x="436" y="511"/>
      <point x="440" y="520"/>
      <point x="449" y="523" type="curve"/>
      <point x="467" y="514"/>
      <point x="485" y="495"/>
      <point x="483" y="483" type="curve"/>
      <point x="475" y="405"/>
      <point x="261" y="194"/>
      <point x="125" y="156" type="curve"/>
      <point x="118" y="162" type="line"/>
      <point x="159" y="217"/>
      <point x="228" y="286"/>
      <point x="285" y="331" type="curve"/>
      <point x="294" y="363"/>
      <point x="279" y="390"/>
      <point x="238" y="400" type="curve"/>
      <point x="194" y="390"/>
      <point x="147" y="378"/>
      <point x="109" y="375" type="curve"/>
      <point x="103" y="386" type="line"/>
      <point x="156" y="438"/>
      <point x="243" y="521"/>
      <point x="342" y="572" type="curve"/>
      <point x="312" y="618" type="line"/>
      <point x="210" y="568"/>
      <point x="97" y="465"/>
      <point x="39" y="400" type="curve"/>
      <point x="34" y="370"/>
      <point x="60" y="334"/>
      <point x="91" y="318" type="curve"/>
      <point x="135" y="324"/>
      <point x="182" y="339"/>
      <point x="220" y="349" type="curve"/>
      <point x="223" y="344" type="line"/>
      <point x="165" y="306"/>
      <point x="107" y="241"/>
      <point x="52" y="173" type="curve"/>
      <point x="49" y="139"/>
      <point x="85" y="111"/>
      <point x="122" y="97" type="curve"/>
      <point x="253" y="127"/>
      <point x="532" y="360"/>
      <point x="545" y="485" type="curve"/>
      <point x="549" y="522"/>
      <point x="505" y="566"/>
      <point x="466" y="581" type="curve"/>
      <point x="425" y="578"/>
      <point x="389" y="545"/>
      <point x="377" y="528" type="curve"/>
      <point x="353" y="434"/>
      <point x="411" y="286"/>
      <point x="418" y="173" type="curve"/>
      <point x="396" y="60"/>
      <point x="335" y="-113"/>
      <point x="292" y="-202" type="curve"/>
      <point x="291" y="-223"/>
      <point x="316" y="-236"/>
      <point x="346" y="-233" type="curve"/>
      <point x="379" y="-135"/>
      <point x="448" y="51"/>
    </contour>
    <contour>
      <point x="331" y="146" type="curve"/>
      <point x="235" y="146"/>
      <point x="148" y="42"/>
      <point x="137" y="-54" type="curve"/>
      <point x="129" y="-124"/>
      <point x="167" y="-168"/>
      <point x="244" y="-171" type="curve"/>
      <point x="294" y="-120"/>
      <point x="348" y="-67"/>
      <point x="398" y="-15" type="curve"/>
      <point x="372" y="3" type="line"/>
      <point x="325" y="-41"/>
      <point x="278" y="-82"/>
      <point x="233" y="-124" type="curve"/>
      <point x="210" y="-112"/>
      <point x="202" y="-85"/>
      <point x="205" y="-54" type="curve"/>
      <point x="216" y="23"/>
      <point x="278" y="99"/>
      <point x="328" y="99" type="curve"/>
      <point x="355" y="99"/>
      <point x="372" y="64"/>
      <point x="381" y="27" type="curve"/>
      <point x="416" y="47" type="line"/>
      <point x="400" y="89"/>
      <point x="385" y="146"/>
    </contour>
  </outline>
</glyph>
<glyph name="dvDD_NA" format="1">
  <advance width="426"/>
  <outline>
    <contour>
      <point x="182" y="-213" type="move" name="blwm"/>
    </contour>
    <contour>
      <point x="185" y="649" type="move" name="abvm_Ekaar"/>
    </contour>
    <contour>
      <point x="554" y="573" type="line"/>
      <point x="567" y="581"/>
      <point x="575" y="595"/>
      <point x="579" y="608" type="curve"/>
      <point x="567" y="619" type="line"/>
      <point x="34" y="619" type="line"/>
      <point x="21" y="611"/>
      <point x="13" y="597"/>
      <point x="9" y="584" type="curve"/>
      <point x="21" y="573" type="line"/>
    </contour>
    <contour>
      <point x="274" y="613" type="curve"/>
      <point x="242" y="577" type="line"/>
      <point x="278" y="562"/>
      <point x="325" y="545"/>
      <point x="347" y="515" type="curve"/>
      <point x="346" y="510" type="line"/>
      <point x="287" y="477"/>
      <point x="197" y="458"/>
      <point x="116" y="437" type="curve"/>
      <point x="91" y="427"/>
      <point x="82" y="394"/>
      <point x="84" y="363" type="curve"/>
      <point x="149" y="312"/>
      <point x="275" y="305"/>
      <point x="344" y="261" type="curve"/>
      <point x="341" y="255" type="line"/>
      <point x="254" y="204"/>
      <point x="129" y="189"/>
      <point x="32" y="182" type="curve"/>
      <point x="13" y="167"/>
      <point x="23" y="141"/>
      <point x="47" y="124" type="curve"/>
      <point x="153" y="135"/>
      <point x="307" y="168"/>
      <point x="376" y="211" type="curve"/>
      <point x="391" y="222"/>
      <point x="410" y="275"/>
      <point x="394" y="297" type="curve"/>
      <point x="329" y="339"/>
      <point x="214" y="351"/>
      <point x="153" y="388" type="curve"/>
      <point x="154" y="392" type="line"/>
      <point x="215" y="418"/>
      <point x="316" y="432"/>
      <point x="383" y="470" type="curve"/>
      <point x="404" y="487"/>
      <point x="413" y="514"/>
      <point x="410" y="527" type="curve"/>
      <point x="378" y="570"/>
      <point x="321" y="594"/>
    </contour>
    <contour>
      <point x="281" y="197" type="line"/>
      <point x="248" y="60" type="line"/>
      <point x="257" y="27" type="line"/>
      <point x="234" y="3" type="line"/>
      <point x="182" y="-213" type="line"/>
      <point x="193" y="-226"/>
      <point x="214" y="-236"/>
      <point x="252" y="-231" type="curve"/>
      <point x="302" y="88" type="line"/>
      <point x="353" y="201" type="line"/>
    </contour>
    <contour>
      <point x="66" y="-14" type="line"/>
      <point x="78" y="-35"/>
      <point x="90" y="-72"/>
      <point x="82" y="-105" type="curve"/>
      <point x="74" y="-109" type="line"/>
      <point x="50" y="-99"/>
      <point x="23" y="-84"/>
      <point x="5" y="-42" type="curve"/>
      <point x="-9" y="-64" type="line"/>
      <point x="91" y="-28"/>
      <point x="173" y="-1"/>
      <point x="283" y="47" type="curve"/>
      <point x="280" y="91" type="line"/>
      <point x="180" y="42"/>
      <point x="62" y="-3"/>
      <point x="-14" y="-18" type="curve"/>
      <point x="-28" y="-29"/>
      <point x="-39" y="-50"/>
      <point x="-38" y="-72" type="curve"/>
      <point x="-16" y="-121"/>
      <point x="23" y="-147"/>
      <point x="69" y="-153" type="curve"/>
      <point x="98" y="-149"/>
      <point x="116" y="-142"/>
      <point x="131" y="-115" type="curve"/>
      <point x="138" y="-65"/>
      <point x="135" y="-34"/>
      <point x="114" y="4" type="curve"/>
    </contour>
  </outline>
</glyph>
<glyph name="dvD_Y_BHA" format="1">
  <advance width="751"/>
  <outline>
    <contour>
      <point x="465" y="573" type="line"/>
      <point x="478" y="581"/>
      <point x="486" y="595"/>
      <point x="490" y="608" type="curve"/>
      <point x="478" y="619" type="line"/>
      <point x="34" y="619" type="line"/>
      <point x="21" y="611"/>
      <point x="13" y="597"/>
      <point x="9" y="584" type="curve"/>
      <point x="21" y="573" type="line"/>
    </contour>
    <contour>
      <point x="338" y="290" type="line"/>
      <point x="280" y="237"/>
      <point x="201" y="185"/>
      <point x="131" y="159" type="curve"/>
      <point x="124" y="166" type="line"/>
      <point x="175" y="223"/>
      <point x="252" y="285"/>
      <point x="304" y="331" type="curve"/>
      <point x="298" y="370"/>
      <point x="276" y="398"/>
      <point x="248" y="400" type="curve"/>
      <point x="202" y="385"/>
      <point x="146" y="371"/>
      <point x="102" y="367" type="curve"/>
      <point x="96" y="376" type="line"/>
      <point x="170" y="411"/>
      <point x="246" y="456"/>
      <point x="298" y="496" type="curve"/>
      <point x="314" y="516"/>
      <point x="317" y="531"/>
      <point x="315" y="543" type="curve"/>
      <point x="282" y="576"/>
      <point x="246" y="589"/>
      <point x="201" y="601" type="curve"/>
      <point x="175" y="574" type="line"/>
      <point x="212" y="561"/>
      <point x="235" y="548"/>
      <point x="253" y="531" type="curve"/>
      <point x="251" y="524" type="line"/>
      <point x="141" y="431"/>
      <point x="30" y="421"/>
      <point x="30" y="385" type="curve" smooth="yes"/>
      <point x="30" y="362"/>
      <point x="51" y="329"/>
      <point x="85" y="314" type="curve"/>
      <point x="141" y="321"/>
      <point x="200" y="333"/>
      <point x="238" y="345" type="curve"/>
      <point x="242" y="340" type="line"/>
      <point x="150" y="259"/>
      <point x="52" y="197"/>
      <point x="52" y="174" type="curve" smooth="yes"/>
      <point x="52" y="145"/>
      <point x="87" y="115"/>
      <point x="127" y="101" type="curve"/>
      <point x="197" y="120"/>
      <point x="299" y="189"/>
      <point x="378" y="262" type="curve"/>
    </contour>
    <contour>
      <point x="800" y="507" type="line"/>
      <point x="779" y="530"/>
      <point x="750" y="541"/>
      <point x="716" y="543" type="curve"/>
      <point x="703" y="485" type="line"/>
      <point x="713" y="480" type="line"/>
      <point x="605" y="23" type="line"/>
      <point x="619" y="6"/>
      <point x="643" y="-5"/>
      <point x="686" y="0" type="curve"/>
      <point x="751" y="400" type="line"/>
    </contour>
    <contour>
      <point x="879" y="573" type="line"/>
      <point x="892" y="581"/>
      <point x="900" y="595"/>
      <point x="904" y="608" type="curve"/>
      <point x="892" y="619" type="line"/>
      <point x="695" y="619" type="line"/>
      <point x="682" y="611"/>
      <point x="674" y="597"/>
      <point x="670" y="584" type="curve"/>
      <point x="682" y="573" type="line"/>
    </contour>
    <contour>
      <point x="543" y="615" type="line"/>
      <point x="535" y="572"/>
      <point x="524" y="525"/>
      <point x="514" y="483" type="curve"/>
      <point x="522" y="474" type="line"/>
      <point x="509" y="447" type="line"/>
      <point x="495" y="378"/>
      <point x="471" y="294"/>
      <point x="446" y="225" type="curve"/>
      <point x="437" y="220" type="line"/>
      <point x="401" y="233"/>
      <point x="388" y="248"/>
      <point x="368" y="281" type="curve"/>
      <point x="340" y="240" type="line"/>
      <point x="490" y="337"/>
      <point x="619" y="416"/>
      <point x="739" y="510" type="curve"/>
      <point x="716" y="543" type="line"/>
      <point x="601" y="450"/>
      <point x="475" y="377"/>
      <point x="343" y="294" type="curve"/>
      <point x="327" y="283"/>
      <point x="320" y="261"/>
      <point x="319" y="242" type="curve"/>
      <point x="348" y="189"/>
      <point x="402" y="166"/>
      <point x="457" y="161" type="curve"/>
      <point x="482" y="169"/>
      <point x="505" y="180"/>
      <point x="519" y="194" type="curve"/>
      <point x="557" y="359"/>
      <point x="580" y="487"/>
      <point x="619" y="660" type="curve"/>
      <point x="608" y="676"/>
      <point x="568" y="690"/>
      <point x="545" y="688" type="curve"/>
      <point x="502" y="643"/>
      <point x="415" y="574"/>
      <point x="369" y="546" type="curve"/>
      <point x="361" y="538"/>
      <point x="350" y="517"/>
      <point x="350" y="505" type="curve" smooth="yes"/>
      <point x="350" y="484"/>
      <point x="397" y="447"/>
      <point x="438" y="447" type="curve"/>
      <point x="539" y="491" type="line"/>
      <point x="526" y="516" type="line"/>
      <point x="435" y="491" type="line"/>
      <point x="421" y="494"/>
      <point x="412" y="503"/>
      <point x="408" y="509" type="curve"/>
      <point x="452" y="545"/>
      <point x="496" y="581"/>
      <point x="540" y="617" type="curve"/>
    </contour>
  </outline>
</glyph>
<glyph name="dvD_Y_RA" format="1">
  <advance width="539"/>
  <outline>
    <contour>
      <point x="667" y="573" type="line"/>
      <point x="680" y="581"/>
      <point x="688" y="595"/>
      <point x="692" y="608" type="curve"/>
      <point x="680" y="619" type="line"/>
      <point x="34" y="619" type="line"/>
      <point x="21" y="611"/>
      <point x="13" y="597"/>
      <point x="9" y="584" type="curve"/>
      <point x="21" y="573" type="line"/>
    </contour>
    <contour>
      <point x="96" y="376" type="line"/>
      <point x="170" y="411"/>
      <point x="246" y="456"/>
      <point x="298" y="496" type="curve"/>
      <point x="314" y="516"/>
      <point x="317" y="531"/>
      <point x="315" y="543" type="curve"/>
      <point x="282" y="576"/>
      <point x="246" y="589"/>
      <point x="201" y="601" type="curve"/>
      <point x="175" y="574" type="line"/>
      <point x="212" y="561"/>
      <point x="235" y="548"/>
      <point x="253" y="531" type="curve"/>
      <point x="251" y="524" type="line"/>
      <point x="141" y="431"/>
      <point x="30" y="421"/>
      <point x="30" y="385" type="curve" smooth="yes"/>
      <point x="30" y="362"/>
      <point x="51" y="329"/>
      <point x="85" y="314" type="curve"/>
      <point x="141" y="321"/>
      <point x="200" y="333"/>
      <point x="238" y="345" type="curve"/>
      <point x="242" y="340" type="line"/>
      <point x="150" y="259"/>
      <point x="52" y="197"/>
      <point x="52" y="174" type="curve" smooth="yes"/>
      <point x="52" y="145"/>
      <point x="87" y="115"/>
      <point x="127" y="101" type="curve"/>
      <point x="232" y="129"/>
      <point x="410" y="272"/>
      <point x="475" y="369" type="curve"/>
      <point x="436" y="401" type="line"/>
      <point x="384" y="315"/>
      <point x="245" y="201"/>
      <point x="131" y="159" type="curve"/>
      <point x="124" y="166" type="line"/>
      <point x="175" y="223"/>
      <point x="252" y="285"/>
      <point x="304" y="331" type="curve"/>
      <point x="298" y="370"/>
      <point x="276" y="398"/>
      <point x="248" y="400" type="curve"/>
      <point x="202" y="385"/>
      <point x="146" y="371"/>
      <point x="102" y="367" type="curve"/>
    </contour>
    <contour>
      <point x="100" y="36" type="curve"/>
      <point x="96" y="16"/>
      <point x="101" y="1"/>
      <point x="134" y="-20" type="curve"/>
      <point x="227" y="30"/>
      <point x="339" y="107"/>
      <point x="394" y="171" type="curve"/>
      <point x="401" y="167" type="line"/>
      <point x="347" y="23" type="line"/>
      <point x="361" y="6"/>
      <point x="385" y="-5"/>
      <point x="428" y="0" type="curve"/>
      <point x="499" y="441" type="line"/>
      <point x="581" y="619" type="line"/>
      <point x="565" y="641"/>
      <point x="540" y="649"/>
      <point x="494" y="649" type="curve"/>
      <point x="414" y="310" type="line"/>
      <point x="433" y="290" type="line"/>
      <point x="373" y="188"/>
      <point x="233" y="91"/>
    </contour>
  </outline>
</glyph>
<glyph name="dvEyelash_HA" format="1">
  <advance width="457"/>
  <outline>
    <contour>
      <point x="333" y="573" type="line"/>
      <point x="346" y="581"/>
      <point x="354" y="595"/>
      <point x="358" y="608" type="curve"/>
      <point x="346" y="619" type="line"/>
      <point x="-6" y="619" type="line"/>
      <point x="-19" y="611"/>
      <point x="-27" y="597"/>
      <point x="-31" y="584" type="curve"/>
      <point x="-19" y="573" type="line"/>
    </contour>
    <contour>
      <point x="114" y="175" type="curve"/>
      <point x="191" y="195"/>
      <point x="234" y="213"/>
      <point x="287" y="250" type="curve"/>
      <point x="274" y="277" type="line"/>
      <point x="228" y="255"/>
      <point x="170" y="235"/>
      <point x="135" y="225" type="curve"/>
      <point x="118" y="243"/>
      <point x="106" y="265"/>
      <point x="96" y="286" type="curve"/>
      <point x="46" y="291"/>
      <point x="27" y="266"/>
      <point x="22" y="231" type="curve"/>
      <point x="40" y="207"/>
      <point x="75" y="187"/>
    </contour>
    <component base="dvHA" xOffset="166"/>
  </outline>
</glyph>
<glyph name="dvK_SS_M_YA" format="1">
  <advance width="1735"/>
  <outline>
    <contour>
      <point x="104" y="250" type="curve"/>
      <point x="227" y="315"/>
      <point x="428" y="439"/>
      <point x="428" y="545" type="curve" smooth="yes"/>
      <point x="428" y="586"/>
      <point x="372" y="689"/>
      <point x="308" y="689" type="curve" smooth="yes"/>
      <point x="231" y="689"/>
      <point x="155" y="569"/>
      <point x="155" y="511" type="curve" smooth="yes"/>
      <point x="155" y="429"/>
      <point x="282" y="308"/>
      <point x="342" y="268" type="curve"/>
      <point x="401" y="255"/>
      <point x="459" y="252"/>
      <point x="527" y="281" type="curve"/>
      <point x="500" y="324" type="line"/>
      <point x="460" y="307"/>
      <point x="410" y="310"/>
      <point x="364" y="314" type="curve"/>
      <point x="302" y="361"/>
      <point x="243" y="409"/>
      <point x="213" y="511" type="curve"/>
      <point x="229" y="572"/>
      <point x="251" y="620"/>
      <point x="307" y="639" type="curve"/>
      <point x="342" y="619"/>
      <point x="363" y="576"/>
      <point x="370" y="539" type="curve"/>
      <point x="325" y="421"/>
      <point x="155" y="334"/>
      <point x="46" y="281" type="curve"/>
      <point x="-3" y="241"/>
      <point x="4" y="154"/>
      <point x="45" y="97" type="curve"/>
      <point x="78" y="71"/>
      <point x="155" y="40"/>
      <point x="237" y="33" type="curve"/>
      <point x="313" y="156" type="line"/>
      <point x="320" y="152" type="line"/>
      <point x="301" y="93"/>
      <point x="236" y="-57"/>
      <point x="195" y="-126" type="curve"/>
      <point x="206" y="-148"/>
      <point x="224" y="-159"/>
      <point x="268" y="-157" type="curve"/>
      <point x="306" y="-52"/>
      <point x="358" y="110"/>
      <point x="385" y="179" type="curve"/>
      <point x="362" y="214"/>
      <point x="342" y="226"/>
      <point x="302" y="223" type="curve"/>
      <point x="277" y="184"/>
      <point x="240" y="121"/>
      <point x="217" y="92" type="curve"/>
      <point x="163" y="99"/>
      <point x="128" y="116"/>
      <point x="92" y="137" type="curve"/>
      <point x="74" y="186"/>
      <point x="71" y="222"/>
    </contour>
    <contour>
      <point x="647" y="304" type="line"/>
      <point x="683" y="277"/>
      <point x="717" y="257"/>
      <point x="761" y="239" type="curve"/>
      <point x="805" y="243"/>
      <point x="876" y="252"/>
      <point x="917" y="271" type="curve"/>
      <point x="909" y="309" type="line"/>
      <point x="866" y="289"/>
      <point x="807" y="282"/>
      <point x="773" y="280" type="curve"/>
      <point x="734" y="293"/>
      <point x="711" y="310"/>
      <point x="688" y="329" type="curve"/>
    </contour>
    <contour>
      <point x="1045" y="573" type="line"/>
      <point x="1058" y="581"/>
      <point x="1066" y="595"/>
      <point x="1070" y="608" type="curve"/>
      <point x="1058" y="619" type="line"/>
      <point x="491" y="619" type="line"/>
      <point x="478" y="611"/>
      <point x="470" y="597"/>
      <point x="466" y="584" type="curve"/>
      <point x="478" y="573" type="line"/>
    </contour>
    <contour>
      <point x="846" y="500" type="curve"/>
      <point x="846" y="546"/>
      <point x="800" y="619"/>
      <point x="730" y="619" type="curve" smooth="yes"/>
      <point x="654" y="619"/>
      <point x="595" y="579"/>
      <point x="572" y="543" type="curve"/>
      <point x="573" y="527"/>
      <point x="587" y="514"/>
      <point x="608" y="510" type="curve"/>
      <point x="634" y="540"/>
      <point x="673" y="566"/>
      <point x="718" y="566" type="curve" smooth="yes"/>
      <point x="746" y="566"/>
      <point x="772" y="525"/>
      <point x="772" y="494" type="curve" smooth="yes"/>
      <point x="772" y="414"/>
      <point x="661" y="342"/>
      <point x="582" y="331" type="curve" smooth="yes"/>
      <point x="563" y="328"/>
      <point x="545" y="329"/>
      <point x="532" y="335" type="curve"/>
      <point x="492" y="332"/>
      <point x="473" y="299"/>
      <point x="462" y="262" type="curve"/>
      <point x="528" y="197"/>
      <point x="635" y="70"/>
      <point x="702" y="0" type="curve"/>
      <point x="716" y="-1"/>
      <point x="734" y="11"/>
      <point x="741" y="35" type="curve"/>
      <point x="681" y="102"/>
      <point x="587" y="214"/>
      <point x="546" y="264" type="curve"/>
      <point x="551" y="272" type="line"/>
      <point x="670" y="267"/>
      <point x="846" y="398"/>
    </contour>
    <contour>
      <point x="1318" y="573" type="line"/>
      <point x="1331" y="581"/>
      <point x="1339" y="595"/>
      <point x="1343" y="608" type="curve"/>
      <point x="1331" y="619" type="line"/>
      <point x="878" y="619" type="line"/>
      <point x="865" y="611"/>
      <point x="857" y="597"/>
      <point x="853" y="584" type="curve"/>
      <point x="865" y="573" type="line"/>
    </contour>
    <contour>
      <point x="971" y="220" type="line"/>
      <point x="941" y="229"/>
      <point x="923" y="245"/>
      <point x="902" y="281" type="curve"/>
      <point x="892" y="253" type="line"/>
      <point x="1016" y="311"/>
      <point x="1123" y="322"/>
      <point x="1268" y="304" type="curve"/>
      <point x="1278" y="341" type="line"/>
      <point x="1131" y="368"/>
      <point x="960" y="340"/>
      <point x="877" y="294" type="curve"/>
      <point x="861" y="283"/>
      <point x="854" y="261"/>
      <point x="853" y="242" type="curve"/>
      <point x="882" y="189"/>
      <point x="936" y="166"/>
      <point x="991" y="161" type="curve"/>
      <point x="1016" y="169"/>
      <point x="1031" y="180"/>
      <point x="1045" y="194" type="curve"/>
      <point x="1071" y="296"/>
      <point x="1096" y="470"/>
      <point x="1115" y="609" type="curve"/>
      <point x="1021" y="597" type="line"/>
      <point x="1031" y="473" type="line"/>
      <point x="1022" y="378"/>
      <point x="1009" y="298"/>
      <point x="980" y="227" type="curve"/>
    </contour>
    <contour>
      <point x="1777" y="619" type="line"/>
      <point x="1761" y="641"/>
      <point x="1736" y="649"/>
      <point x="1690" y="649" type="curve"/>
      <point x="1615" y="328" type="line"/>
      <point x="1634" y="313" type="line"/>
      <point x="1595" y="241" type="line"/>
      <point x="1543" y="23" type="line"/>
      <point x="1557" y="6"/>
      <point x="1581" y="-5"/>
      <point x="1624" y="0" type="curve"/>
      <point x="1695" y="441" type="line"/>
    </contour>
    <contour>
      <point x="1863" y="573" type="line"/>
      <point x="1876" y="581"/>
      <point x="1884" y="595"/>
      <point x="1888" y="608" type="curve"/>
      <point x="1876" y="619" type="line"/>
      <point x="1247" y="619" type="line"/>
      <point x="1234" y="611"/>
      <point x="1226" y="597"/>
      <point x="1222" y="584" type="curve"/>
      <point x="1234" y="573" type="line"/>
    </contour>
    <contour>
      <point x="1301" y="550" type="curve"/>
      <point x="1299" y="533"/>
      <point x="1314" y="521"/>
      <point x="1333" y="516" type="curve"/>
      <point x="1371" y="547"/>
      <point x="1406" y="568"/>
      <point x="1445" y="568" type="curve" smooth="yes"/>
      <point x="1465" y="568"/>
      <point x="1491" y="556"/>
      <point x="1491" y="536" type="curve" smooth="yes"/>
      <point x="1491" y="442"/>
      <point x="1229" y="358"/>
      <point x="1229" y="274" type="curve" smooth="yes"/>
      <point x="1229" y="225"/>
      <point x="1318" y="151"/>
      <point x="1371" y="151" type="curve" smooth="yes"/>
      <point x="1451" y="151"/>
      <point x="1603" y="276"/>
      <point x="1668" y="385" type="curve"/>
      <point x="1635" y="413" type="line"/>
      <point x="1580" y="315"/>
      <point x="1432" y="201"/>
      <point x="1381" y="201" type="curve" smooth="yes"/>
      <point x="1344" y="201"/>
      <point x="1299" y="244"/>
      <point x="1299" y="270" type="curve" smooth="yes"/>
      <point x="1299" y="327"/>
      <point x="1561" y="432"/>
      <point x="1561" y="539" type="curve" smooth="yes"/>
      <point x="1561" y="584"/>
      <point x="1491" y="619"/>
      <point x="1442" y="619" type="curve" smooth="yes"/>
      <point x="1398" y="619"/>
      <point x="1331" y="584"/>
    </contour>
  </outline>
</glyph>
<glyph name="dvL_BHA" format="1">
  <advance width="818"/>
  <outline>
    <contour>
      <point x="532" y="573" type="line"/>
      <point x="545" y="581"/>
      <point x="553" y="595"/>
      <point x="557" y="608" type="curve"/>
      <point x="545" y="619" type="line"/>
      <point x="34" y="619" type="line"/>
      <point x="21" y="611"/>
      <point x="13" y="597"/>
      <point x="9" y="584" type="curve"/>
      <point x="21" y="573" type="line"/>
    </contour>
    <contour>
      <point x="459" y="434" type="line"/>
      <point x="389" y="352"/>
      <point x="349" y="314"/>
      <point x="300" y="275" type="curve"/>
      <point x="295" y="279" type="line"/>
      <point x="318" y="326"/>
      <point x="302" y="409"/>
      <point x="247" y="442" type="curve"/>
      <point x="235" y="444"/>
      <point x="216" y="444"/>
      <point x="198" y="442" type="curve" smooth="yes"/>
      <point x="180" y="441"/>
      <point x="162" y="438"/>
      <point x="151" y="434" type="curve"/>
      <point x="98" y="406"/>
      <point x="27" y="315"/>
      <point x="27" y="253" type="curve" smooth="yes"/>
      <point x="27" y="173"/>
      <point x="75" y="71"/>
      <point x="173" y="-3" type="curve"/>
      <point x="197" y="1"/>
      <point x="221" y="22"/>
      <point x="228" y="46" type="curve"/>
      <point x="144" y="104"/>
      <point x="107" y="175"/>
      <point x="107" y="239" type="curve" smooth="yes"/>
      <point x="107" y="300"/>
      <point x="140" y="354"/>
      <point x="198" y="384" type="curve"/>
      <point x="229" y="372"/>
      <point x="244" y="350"/>
      <point x="248" y="325" type="curve" smooth="yes"/>
      <point x="253" y="296"/>
      <point x="241" y="276"/>
      <point x="223" y="246" type="curve"/>
      <point x="233" y="228"/>
      <point x="279" y="206"/>
      <point x="306" y="217" type="curve"/>
      <point x="362" y="253"/>
      <point x="445" y="348"/>
      <point x="491" y="394" type="curve"/>
    </contour>
    <contour>
      <point x="867" y="507" type="line"/>
      <point x="846" y="530"/>
      <point x="817" y="541"/>
      <point x="783" y="543" type="curve"/>
      <point x="770" y="485" type="line"/>
      <point x="780" y="480" type="line"/>
      <point x="672" y="23" type="line"/>
      <point x="686" y="6"/>
      <point x="710" y="-5"/>
      <point x="753" y="0" type="curve"/>
      <point x="818" y="400" type="line"/>
    </contour>
    <contour>
      <point x="946" y="573" type="line"/>
      <point x="959" y="581"/>
      <point x="967" y="595"/>
      <point x="971" y="608" type="curve"/>
      <point x="959" y="619" type="line"/>
      <point x="762" y="619" type="line"/>
      <point x="749" y="611"/>
      <point x="741" y="597"/>
      <point x="737" y="584" type="curve"/>
      <point x="749" y="573" type="line"/>
    </contour>
    <contour>
      <point x="610" y="615" type="line"/>
      <point x="602" y="572"/>
      <point x="591" y="525"/>
      <point x="581" y="483" type="curve"/>
      <point x="589" y="474" type="line"/>
      <point x="576" y="447" type="line"/>
      <point x="562" y="378"/>
      <point x="538" y="294"/>
      <point x="513" y="225" type="curve"/>
      <point x="504" y="220" type="line"/>
      <point x="468" y="233"/>
      <point x="455" y="248"/>
      <point x="435" y="281" type="curve"/>
      <point x="407" y="240" type="line"/>
      <point x="557" y="337"/>
      <point x="686" y="416"/>
      <point x="806" y="510" type="curve"/>
      <point x="783" y="543" type="line"/>
      <point x="668" y="450"/>
      <point x="542" y="377"/>
      <point x="410" y="294" type="curve"/>
      <point x="394" y="283"/>
      <point x="387" y="261"/>
      <point x="386" y="242" type="curve"/>
      <point x="415" y="189"/>
      <point x="469" y="166"/>
      <point x="524" y="161" type="curve"/>
      <point x="549" y="169"/>
      <point x="572" y="180"/>
      <point x="586" y="194" type="curve"/>
      <point x="624" y="359"/>
      <point x="647" y="487"/>
      <point x="686" y="660" type="curve"/>
      <point x="675" y="676"/>
      <point x="635" y="690"/>
      <point x="612" y="688" type="curve"/>
      <point x="569" y="643"/>
      <point x="482" y="574"/>
      <point x="436" y="546" type="curve"/>
      <point x="428" y="538"/>
      <point x="417" y="517"/>
      <point x="417" y="505" type="curve" smooth="yes"/>
      <point x="417" y="484"/>
      <point x="464" y="447"/>
      <point x="505" y="447" type="curve"/>
      <point x="606" y="491" type="line"/>
      <point x="593" y="516" type="line"/>
      <point x="502" y="491" type="line"/>
      <point x="488" y="494"/>
      <point x="479" y="503"/>
      <point x="475" y="509" type="curve"/>
      <point x="519" y="545"/>
      <point x="563" y="581"/>
      <point x="607" y="617" type="curve"/>
    </contour>
  </outline>
</glyph>
<glyph name="dvL_GA" format="1">
  <advance width="897"/>
  <outline>
    <contour>
      <point x="572" y="573" type="line"/>
      <point x="585" y="581"/>
      <point x="593" y="595"/>
      <point x="597" y="608" type="curve"/>
      <point x="585" y="619" type="line"/>
      <point x="34" y="619" type="line"/>
      <point x="21" y="611"/>
      <point x="13" y="597"/>
      <point x="9" y="584" type="curve"/>
      <point x="21" y="573" type="line"/>
    </contour>
    <contour>
      <point x="465" y="414" type="line"/>
      <point x="422" y="367"/>
      <point x="372" y="322"/>
      <point x="315" y="279" type="curve"/>
      <point x="310" y="283" type="line"/>
      <point x="313" y="296"/>
      <point x="314" y="310"/>
      <point x="313" y="324" type="curve" smooth="yes"/>
      <point x="310" y="372"/>
      <point x="286" y="419"/>
      <point x="247" y="442" type="curve"/>
      <point x="223" y="446"/>
      <point x="173" y="442"/>
      <point x="151" y="434" type="curve"/>
      <point x="98" y="406"/>
      <point x="27" y="315"/>
      <point x="27" y="253" type="curve" smooth="yes"/>
      <point x="27" y="173"/>
      <point x="75" y="71"/>
      <point x="173" y="-3" type="curve"/>
      <point x="197" y="1"/>
      <point x="221" y="22"/>
      <point x="228" y="46" type="curve"/>
      <point x="144" y="104"/>
      <point x="107" y="175"/>
      <point x="107" y="239" type="curve" smooth="yes"/>
      <point x="107" y="300"/>
      <point x="140" y="354"/>
      <point x="198" y="384" type="curve"/>
      <point x="229" y="372"/>
      <point x="244" y="350"/>
      <point x="248" y="325" type="curve" smooth="yes"/>
      <point x="253" y="296"/>
      <point x="242" y="262"/>
      <point x="224" y="232" type="curve"/>
      <point x="234" y="214"/>
      <point x="280" y="192"/>
      <point x="304" y="195" type="curve"/>
      <point x="353" y="232"/>
      <point x="437" y="310"/>
      <point x="495" y="364" type="curve"/>
    </contour>
    <contour>
      <point x="941" y="619" type="line"/>
      <point x="925" y="641"/>
      <point x="900" y="649"/>
      <point x="854" y="649" type="curve"/>
      <point x="707" y="23" type="line"/>
      <point x="721" y="6"/>
      <point x="745" y="-5"/>
      <point x="788" y="0" type="curve"/>
      <point x="859" y="441" type="line"/>
    </contour>
    <contour>
      <point x="1025" y="573" type="line"/>
      <point x="1038" y="581"/>
      <point x="1046" y="595"/>
      <point x="1050" y="608" type="curve"/>
      <point x="1038" y="619" type="line"/>
      <point x="465" y="619" type="line"/>
      <point x="452" y="611"/>
      <point x="444" y="597"/>
      <point x="440" y="584" type="curve"/>
      <point x="452" y="573" type="line"/>
    </contour>
    <contour>
      <point x="454" y="240" type="line"/>
      <point x="520" y="283"/>
      <point x="585" y="327"/>
      <point x="647" y="371" type="curve"/>
      <point x="637" y="414" type="line"/>
      <point x="578" y="372"/>
      <point x="518" y="332"/>
      <point x="457" y="294" type="curve"/>
      <point x="441" y="283"/>
      <point x="434" y="261"/>
      <point x="433" y="242" type="curve"/>
      <point x="462" y="189"/>
      <point x="516" y="166"/>
      <point x="571" y="161" type="curve"/>
      <point x="596" y="169"/>
      <point x="611" y="180"/>
      <point x="625" y="194" type="curve"/>
      <point x="651" y="296"/>
      <point x="686" y="470"/>
      <point x="705" y="609" type="curve"/>
      <point x="611" y="597" type="line"/>
      <point x="621" y="473" type="line"/>
      <point x="612" y="378"/>
      <point x="589" y="298"/>
      <point x="560" y="227" type="curve"/>
      <point x="551" y="220" type="line"/>
      <point x="521" y="229"/>
      <point x="503" y="245"/>
      <point x="482" y="281" type="curve"/>
    </contour>
  </outline>
</glyph>
<glyph name="dvNN" format="1">
  <advance width="400"/>
  <outline>
    <contour>
      <point x="556" y="608" type="curve"/>
      <point x="544" y="619" type="line"/>
      <point x="232" y="619" type="line"/>
      <point x="158" y="573"/>
      <point x="51" y="422"/>
      <point x="51" y="354" type="curve" smooth="yes"/>
      <point x="51" y="284"/>
      <point x="121" y="184"/>
      <point x="183" y="184" type="curve" smooth="yes"/>
      <point x="239" y="184"/>
      <point x="350" y="240"/>
      <point x="388" y="339" type="curve"/>
      <point x="400" y="399"/>
      <point x="384" y="491"/>
      <point x="350" y="573" type="curve"/>
      <point x="531" y="573" type="line"/>
      <point x="544" y="581"/>
      <point x="552" y="595"/>
    </contour>
    <contour>
      <point x="279" y="573" type="line"/>
      <point x="314" y="491"/>
      <point x="325" y="431"/>
      <point x="325" y="370" type="curve"/>
      <point x="325" y="325"/>
      <point x="243" y="243"/>
      <point x="189" y="243" type="curve" smooth="yes"/>
      <point x="153" y="243"/>
      <point x="123" y="312"/>
      <point x="123" y="348" type="curve" smooth="yes"/>
      <point x="123" y="401"/>
      <point x="181" y="504"/>
      <point x="263" y="573" type="curve"/>
    </contour>
  </outline>
</glyph>
<glyph name="dvNN_NNA" format="1">
  <advance width="1004"/>
  <outline>
    <contour>
      <point x="690" y="608" type="curve"/>
      <point x="678" y="619" type="line"/>
      <point x="232" y="619" type="line"/>
      <point x="158" y="573"/>
      <point x="51" y="422"/>
      <point x="51" y="354" type="curve" smooth="yes"/>
      <point x="51" y="284"/>
      <point x="121" y="184"/>
      <point x="183" y="184" type="curve" smooth="yes"/>
      <point x="239" y="184"/>
      <point x="350" y="240"/>
      <point x="388" y="339" type="curve"/>
      <point x="400" y="399"/>
      <point x="384" y="491"/>
      <point x="350" y="573" type="curve"/>
      <point x="665" y="573" type="line"/>
      <point x="678" y="581"/>
      <point x="686" y="595"/>
    </contour>
    <contour>
      <point x="279" y="573" type="line"/>
      <point x="314" y="491"/>
      <point x="325" y="431"/>
      <point x="325" y="370" type="curve"/>
      <point x="325" y="325"/>
      <point x="243" y="243"/>
      <point x="189" y="243" type="curve" smooth="yes"/>
      <point x="153" y="243"/>
      <point x="123" y="312"/>
      <point x="123" y="348" type="curve" smooth="yes"/>
      <point x="123" y="401"/>
      <point x="181" y="504"/>
      <point x="263" y="573" type="curve"/>
    </contour>
    <contour>
      <point x="1157" y="608" type="curve"/>
      <point x="1145" y="619" type="line"/>
      <point x="652" y="619" type="line"/>
      <point x="573" y="568"/>
      <point x="462" y="421"/>
      <point x="462" y="354" type="curve" smooth="yes"/>
      <point x="462" y="284"/>
      <point x="532" y="184"/>
      <point x="594" y="184" type="curve" smooth="yes"/>
      <point x="649" y="184"/>
      <point x="760" y="237"/>
      <point x="799" y="349" type="curve"/>
      <point x="809" y="422"/>
      <point x="793" y="497"/>
      <point x="761" y="573" type="curve"/>
      <point x="1132" y="573" type="line"/>
      <point x="1145" y="581"/>
      <point x="1153" y="595"/>
    </contour>
    <contour>
      <point x="690" y="573" type="line"/>
      <point x="725" y="491"/>
      <point x="736" y="431"/>
      <point x="736" y="370" type="curve"/>
      <point x="722" y="302"/>
      <point x="660" y="253"/>
      <point x="600" y="235" type="curve"/>
      <point x="557" y="258"/>
      <point x="537" y="301"/>
      <point x="532" y="349" type="curve"/>
      <point x="539" y="416"/>
      <point x="601" y="512"/>
      <point x="674" y="573" type="curve"/>
    </contour>
    <contour>
      <point x="1046" y="619" type="line"/>
      <point x="1030" y="641"/>
      <point x="1005" y="649"/>
      <point x="959" y="649" type="curve"/>
      <point x="812" y="23" type="line"/>
      <point x="826" y="6"/>
      <point x="850" y="-5"/>
      <point x="893" y="0" type="curve"/>
      <point x="964" y="441" type="line"/>
    </contour>
  </outline>
</glyph>
<glyph name="dvNN_RA" format="1">
  <advance width="593"/>
  <outline>
    <contour>
      <point x="746" y="608" type="curve"/>
      <point x="734" y="619" type="line"/>
      <point x="232" y="619" type="line"/>
      <point x="158" y="573"/>
      <point x="51" y="422"/>
      <point x="51" y="354" type="curve" smooth="yes"/>
      <point x="51" y="284"/>
      <point x="121" y="184"/>
      <point x="183" y="184" type="curve" smooth="yes"/>
      <point x="239" y="184"/>
      <point x="350" y="240"/>
      <point x="388" y="339" type="curve"/>
      <point x="400" y="399"/>
      <point x="384" y="491"/>
      <point x="350" y="573" type="curve"/>
      <point x="721" y="573" type="line"/>
      <point x="734" y="581"/>
      <point x="742" y="595"/>
    </contour>
    <contour>
      <point x="279" y="573" type="line"/>
      <point x="314" y="491"/>
      <point x="325" y="431"/>
      <point x="325" y="370" type="curve"/>
      <point x="325" y="325"/>
      <point x="243" y="243"/>
      <point x="189" y="243" type="curve" smooth="yes"/>
      <point x="153" y="243"/>
      <point x="123" y="312"/>
      <point x="123" y="348" type="curve" smooth="yes"/>
      <point x="123" y="401"/>
      <point x="181" y="504"/>
      <point x="263" y="573" type="curve"/>
    </contour>
    <contour>
      <point x="452" y="239" type="line"/>
      <point x="367" y="150"/>
      <point x="258" y="79"/>
      <point x="154" y="36" type="curve"/>
      <point x="150" y="16"/>
      <point x="155" y="1"/>
      <point x="188" y="-20" type="curve"/>
      <point x="281" y="30"/>
      <point x="393" y="107"/>
      <point x="448" y="171" type="curve"/>
      <point x="455" y="167" type="line"/>
      <point x="401" y="23" type="line"/>
      <point x="415" y="6"/>
      <point x="439" y="-5"/>
      <point x="482" y="0" type="curve"/>
      <point x="553" y="441" type="line"/>
      <point x="635" y="619" type="line"/>
      <point x="619" y="641"/>
      <point x="594" y="649"/>
      <point x="548" y="649" type="curve"/>
    </contour>
  </outline>
</glyph>
<glyph name="dvNN_R" format="1">
  <advance width="401"/>
  <outline>
    <contour>
      <point x="555" y="608" type="curve"/>
      <point x="543" y="619" type="line"/>
      <point x="232" y="619" type="line"/>
      <point x="158" y="573"/>
      <point x="51" y="422"/>
      <point x="51" y="354" type="curve" smooth="yes"/>
      <point x="51" y="284"/>
      <point x="121" y="184"/>
      <point x="183" y="184" type="curve" smooth="yes"/>
      <point x="239" y="184"/>
      <point x="350" y="240"/>
      <point x="388" y="339" type="curve"/>
      <point x="400" y="399"/>
      <point x="384" y="491"/>
      <point x="350" y="573" type="curve"/>
      <point x="530" y="573" type="line"/>
      <point x="543" y="581"/>
      <point x="551" y="595"/>
    </contour>
    <contour>
      <point x="279" y="573" type="line"/>
      <point x="314" y="491"/>
      <point x="325" y="431"/>
      <point x="325" y="370" type="curve"/>
      <point x="325" y="325"/>
      <point x="243" y="243"/>
      <point x="189" y="243" type="curve" smooth="yes"/>
      <point x="153" y="243"/>
      <point x="123" y="312"/>
      <point x="123" y="348" type="curve" smooth="yes"/>
      <point x="123" y="401"/>
      <point x="181" y="504"/>
      <point x="263" y="573" type="curve"/>
    </contour>
    <contour>
      <point x="464" y="250" type="line"/>
      <point x="381" y="160"/>
      <point x="260" y="78"/>
      <point x="154" y="36" type="curve"/>
      <point x="150" y="16"/>
      <point x="155" y="1"/>
      <point x="188" y="-20" type="curve"/>
      <point x="294" y="37"/>
      <point x="407" y="116"/>
      <point x="493" y="224" type="curve"/>
    </contour>
  </outline>
</glyph>
<glyph name="dvNN_TTHA" format="1">
  <advance width="914"/>
  <outline>
    <contour>
      <point x="674" y="0" type="move" name="blwm"/>
    </contour>
    <contour>
      <point x="587" y="649" type="move" name="abvm_Ekaar"/>
    </contour>
    <contour>
      <point x="556" y="608" type="curve"/>
      <point x="544" y="619" type="line"/>
      <point x="232" y="619" type="line"/>
      <point x="158" y="573"/>
      <point x="51" y="422"/>
      <point x="51" y="354" type="curve" smooth="yes"/>
      <point x="51" y="284"/>
      <point x="121" y="184"/>
      <point x="183" y="184" type="curve" smooth="yes"/>
      <point x="239" y="184"/>
      <point x="350" y="240"/>
      <point x="388" y="339" type="curve"/>
      <point x="400" y="399"/>
      <point x="384" y="491"/>
      <point x="350" y="573" type="curve"/>
      <point x="531" y="573" type="line"/>
      <point x="544" y="581"/>
      <point x="552" y="595"/>
    </contour>
    <contour>
      <point x="279" y="573" type="line"/>
      <point x="314" y="491"/>
      <point x="325" y="431"/>
      <point x="325" y="370" type="curve"/>
      <point x="325" y="325"/>
      <point x="243" y="243"/>
      <point x="189" y="243" type="curve" smooth="yes"/>
      <point x="153" y="243"/>
      <point x="123" y="312"/>
      <point x="123" y="348" type="curve" smooth="yes"/>
      <point x="123" y="401"/>
      <point x="181" y="504"/>
      <point x="263" y="573" type="curve"/>
    </contour>
    <contour>
      <point x="1000" y="573" type="line"/>
      <point x="1013" y="581"/>
      <point x="1021" y="595"/>
      <point x="1025" y="608" type="curve"/>
      <point x="1013" y="619" type="line"/>
      <point x="441" y="619" type="line"/>
      <point x="428" y="611"/>
      <point x="420" y="597"/>
      <point x="416" y="584" type="curve"/>
      <point x="428" y="573" type="line"/>
    </contour>
    <contour>
      <point x="657" y="616" type="curve"/>
      <point x="620" y="586" type="line"/>
      <point x="668" y="560"/>
      <point x="715" y="533"/>
      <point x="736" y="498" type="curve"/>
      <point x="734" y="489" type="line"/>
      <point x="701" y="442"/>
      <point x="619" y="409"/>
      <point x="538" y="359" type="curve" smooth="yes"/>
      <point x="471" y="318"/>
      <point x="413" y="276"/>
      <point x="413" y="224" type="curve" smooth="yes"/>
      <point x="413" y="142"/>
      <point x="504" y="63"/>
      <point x="609" y="49" type="curve"/>
      <point x="729" y="58"/>
      <point x="879" y="141"/>
      <point x="885" y="268" type="curve"/>
      <point x="858" y="332"/>
      <point x="748" y="387"/>
      <point x="682" y="408" type="curve"/>
      <point x="646" y="378" type="line"/>
      <point x="709" y="350"/>
      <point x="786" y="307"/>
      <point x="818" y="262" type="curve"/>
      <point x="813" y="189"/>
      <point x="719" y="105"/>
      <point x="612" y="93" type="curve"/>
      <point x="568" y="109"/>
      <point x="532" y="135"/>
      <point x="509" y="167" type="curve" smooth="yes"/>
      <point x="495" y="186"/>
      <point x="487" y="207"/>
      <point x="487" y="225" type="curve" smooth="yes"/>
      <point x="487" y="294"/>
      <point x="669" y="368"/>
      <point x="774" y="448" type="curve"/>
      <point x="787" y="463"/>
      <point x="796" y="478"/>
      <point x="799" y="502" type="curve"/>
      <point x="779" y="547"/>
      <point x="721" y="583"/>
    </contour>
  </outline>
</glyph>
<glyph name="dvNN_YA" format="1">
  <advance width="922"/>
  <outline>
    <contour>
      <point x="556" y="608" type="curve"/>
      <point x="544" y="619" type="line"/>
      <point x="232" y="619" type="line"/>
      <point x="158" y="573"/>
      <point x="51" y="422"/>
      <point x="51" y="354" type="curve" smooth="yes"/>
      <point x="51" y="284"/>
      <point x="121" y="184"/>
      <point x="183" y="184" type="curve" smooth="yes"/>
      <point x="239" y="184"/>
      <point x="350" y="240"/>
      <point x="388" y="339" type="curve"/>
      <point x="400" y="399"/>
      <point x="384" y="491"/>
      <point x="350" y="573" type="curve"/>
      <point x="531" y="573" type="line"/>
      <point x="544" y="581"/>
      <point x="552" y="595"/>
    </contour>
    <contour>
      <point x="279" y="573" type="line"/>
      <point x="314" y="491"/>
      <point x="325" y="431"/>
      <point x="325" y="370" type="curve"/>
      <point x="325" y="325"/>
      <point x="243" y="243"/>
      <point x="189" y="243" type="curve" smooth="yes"/>
      <point x="153" y="243"/>
      <point x="123" y="312"/>
      <point x="123" y="348" type="curve" smooth="yes"/>
      <point x="123" y="401"/>
      <point x="181" y="504"/>
      <point x="263" y="573" type="curve"/>
    </contour>
    <contour>
      <point x="964" y="619" type="line"/>
      <point x="948" y="641"/>
      <point x="923" y="649"/>
      <point x="877" y="649" type="curve"/>
      <point x="802" y="328" type="line"/>
      <point x="821" y="313" type="line"/>
      <point x="782" y="241" type="line"/>
      <point x="730" y="23" type="line"/>
      <point x="744" y="6"/>
      <point x="768" y="-5"/>
      <point x="811" y="0" type="curve"/>
      <point x="882" y="441" type="line"/>
    </contour>
    <contour>
      <point x="1050" y="573" type="line"/>
      <point x="1063" y="581"/>
      <point x="1071" y="595"/>
      <point x="1075" y="608" type="curve"/>
      <point x="1063" y="619" type="line"/>
      <point x="434" y="619" type="line"/>
      <point x="421" y="611"/>
      <point x="413" y="597"/>
      <point x="409" y="584" type="curve"/>
      <point x="421" y="573" type="line"/>
    </contour>
    <contour>
      <point x="488" y="550" type="curve"/>
      <point x="486" y="533"/>
      <point x="501" y="521"/>
      <point x="520" y="516" type="curve"/>
      <point x="558" y="547"/>
      <point x="593" y="568"/>
      <point x="632" y="568" type="curve" smooth="yes"/>
      <point x="652" y="568"/>
      <point x="678" y="556"/>
      <point x="678" y="536" type="curve" smooth="yes"/>
      <point x="678" y="442"/>
      <point x="416" y="358"/>
      <point x="416" y="274" type="curve" smooth="yes"/>
      <point x="416" y="225"/>
      <point x="505" y="151"/>
      <point x="558" y="151" type="curve" smooth="yes"/>
      <point x="638" y="151"/>
      <point x="790" y="276"/>
      <point x="855" y="385" type="curve"/>
      <point x="822" y="413" type="line"/>
      <point x="767" y="315"/>
      <point x="619" y="201"/>
      <point x="568" y="201" type="curve" smooth="yes"/>
      <point x="531" y="201"/>
      <point x="486" y="244"/>
      <point x="486" y="270" type="curve" smooth="yes"/>
      <point x="486" y="327"/>
      <point x="748" y="432"/>
      <point x="748" y="539" type="curve" smooth="yes"/>
      <point x="748" y="584"/>
      <point x="678" y="619"/>
      <point x="629" y="619" type="curve" smooth="yes"/>
      <point x="585" y="619"/>
      <point x="518" y="584"/>
    </contour>
  </outline>
</glyph>
<glyph name="dvP_CA" format="1">
  <advance width="855"/>
  <outline>
    <contour>
      <point x="418" y="573" type="line"/>
      <point x="431" y="581"/>
      <point x="439" y="595"/>
      <point x="443" y="608" type="curve"/>
      <point x="431" y="619" type="line"/>
      <point x="34" y="619" type="line"/>
      <point x="21" y="611"/>
      <point x="13" y="597"/>
      <point x="9" y="584" type="curve"/>
      <point x="21" y="573" type="line"/>
    </contour>
    <contour>
      <point x="121" y="598" type="curve"/>
      <point x="88" y="469"/>
      <point x="54" y="343"/>
      <point x="21" y="215" type="curve"/>
      <point x="39" y="187"/>
      <point x="86" y="168"/>
      <point x="113" y="170" type="curve"/>
      <point x="186" y="231"/>
      <point x="326" y="359"/>
      <point x="387" y="418" type="curve"/>
      <point x="360" y="447" type="line"/>
      <point x="302" y="391"/>
      <point x="194" y="298"/>
      <point x="120" y="241" type="curve"/>
      <point x="111" y="246" type="line"/>
      <point x="122" y="307"/>
      <point x="134" y="369"/>
      <point x="145" y="430" type="curve"/>
      <point x="213" y="575" type="line"/>
      <point x="190" y="590"/>
      <point x="150" y="600"/>
    </contour>
    <contour>
      <point x="897" y="619" type="line"/>
      <point x="881" y="641"/>
      <point x="856" y="649"/>
      <point x="810" y="649" type="curve"/>
      <point x="732" y="317" type="line"/>
      <point x="751" y="301" type="line"/>
      <point x="712" y="229" type="line"/>
      <point x="663" y="23" type="line"/>
      <point x="677" y="6"/>
      <point x="701" y="-5"/>
      <point x="744" y="0" type="curve"/>
      <point x="815" y="441" type="line"/>
    </contour>
    <contour>
      <point x="983" y="573" type="line"/>
      <point x="996" y="581"/>
      <point x="1004" y="595"/>
      <point x="1008" y="608" type="curve"/>
      <point x="996" y="619" type="line"/>
      <point x="292" y="619" type="line"/>
      <point x="279" y="611"/>
      <point x="271" y="597"/>
      <point x="267" y="584" type="curve"/>
      <point x="279" y="573" type="line"/>
    </contour>
    <contour>
      <point x="302" y="390" type="curve"/>
      <point x="377" y="385"/>
      <point x="469" y="396"/>
      <point x="535" y="404" type="curve"/>
      <point x="536" y="397" type="line"/>
      <point x="477" y="369"/>
      <point x="348" y="320"/>
      <point x="348" y="273" type="curve" smooth="yes"/>
      <point x="348" y="223"/>
      <point x="431" y="150"/>
      <point x="493" y="150" type="curve" smooth="yes"/>
      <point x="585" y="150"/>
      <point x="711" y="267"/>
      <point x="791" y="381" type="curve"/>
      <point x="755" y="412" type="line"/>
      <point x="698" y="313"/>
      <point x="571" y="214"/>
      <point x="520" y="214" type="curve" smooth="yes"/>
      <point x="484" y="214"/>
      <point x="437" y="254"/>
      <point x="437" y="281" type="curve" smooth="yes"/>
      <point x="437" y="311"/>
      <point x="539" y="355"/>
      <point x="606" y="382" type="curve"/>
      <point x="608" y="401"/>
      <point x="599" y="445"/>
      <point x="586" y="449" type="curve"/>
      <point x="497" y="444"/>
      <point x="393" y="450"/>
      <point x="299" y="466" type="curve"/>
      <point x="287" y="455"/>
      <point x="290" y="409"/>
    </contour>
  </outline>
</glyph>
<glyph name="dvTT_NA" format="1">
  <advance width="436"/>
  <outline>
    <contour>
      <point x="199" y="-213" type="move" name="blwm"/>
    </contour>
    <contour>
      <point x="214" y="649" type="move" name="abvm_Ekaar"/>
    </contour>
    <contour>
      <point x="563" y="573" type="line"/>
      <point x="576" y="581"/>
      <point x="584" y="595"/>
      <point x="588" y="608" type="curve"/>
      <point x="576" y="619" type="line"/>
      <point x="44" y="619" type="line"/>
      <point x="31" y="611"/>
      <point x="23" y="597"/>
      <point x="19" y="584" type="curve"/>
      <point x="31" y="573" type="line"/>
    </contour>
    <contour>
      <point x="369" y="265" type="curve"/>
      <point x="339" y="221"/>
      <point x="282" y="178"/>
      <point x="202" y="168" type="curve"/>
      <point x="157" y="190"/>
      <point x="127" y="239"/>
      <point x="126" y="271" type="curve" smooth="yes"/>
      <point x="126" y="297"/>
      <point x="149" y="317"/>
      <point x="185" y="342" type="curve" smooth="yes"/>
      <point x="239" y="377"/>
      <point x="313" y="419"/>
      <point x="360" y="464" type="curve"/>
      <point x="370" y="475"/>
      <point x="378" y="496"/>
      <point x="377" y="511" type="curve"/>
      <point x="351" y="558"/>
      <point x="308" y="584"/>
      <point x="252" y="611" type="curve"/>
      <point x="216" y="579" type="line"/>
      <point x="256" y="562"/>
      <point x="304" y="532"/>
      <point x="320" y="503" type="curve"/>
      <point x="319" y="497" type="line"/>
      <point x="276" y="451"/>
      <point x="195" y="413"/>
      <point x="138" y="377" type="curve" smooth="yes"/>
      <point x="90" y="347"/>
      <point x="52" y="315"/>
      <point x="53" y="269" type="curve"/>
      <point x="54" y="213"/>
      <point x="121" y="140"/>
      <point x="193" y="119" type="curve"/>
      <point x="307" y="128"/>
      <point x="391" y="184"/>
      <point x="416" y="222" type="curve"/>
      <point x="411" y="250"/>
      <point x="397" y="266"/>
    </contour>
    <contour>
      <point x="291" y="169" type="line"/>
      <point x="265" y="60" type="line"/>
      <point x="274" y="27" type="line"/>
      <point x="251" y="3" type="line"/>
      <point x="199" y="-213" type="line"/>
      <point x="210" y="-226"/>
      <point x="231" y="-236"/>
      <point x="269" y="-231" type="curve"/>
      <point x="319" y="103" type="line"/>
      <point x="354" y="174" type="line"/>
    </contour>
    <contour>
      <point x="83" y="-14" type="line"/>
      <point x="95" y="-35"/>
      <point x="107" y="-72"/>
      <point x="99" y="-105" type="curve"/>
      <point x="91" y="-109" type="line"/>
      <point x="67" y="-99"/>
      <point x="40" y="-84"/>
      <point x="22" y="-42" type="curve"/>
      <point x="8" y="-64" type="line"/>
      <point x="108" y="-28"/>
      <point x="190" y="-1"/>
      <point x="300" y="47" type="curve"/>
      <point x="297" y="91" type="line"/>
      <point x="197" y="42"/>
      <point x="79" y="-3"/>
      <point x="3" y="-18" type="curve"/>
      <point x="-11" y="-29"/>
      <point x="-22" y="-50"/>
      <point x="-21" y="-72" type="curve"/>
      <point x="1" y="-121"/>
      <point x="40" y="-147"/>
      <point x="86" y="-153" type="curve"/>
      <point x="115" y="-149"/>
      <point x="133" y="-142"/>
      <point x="148" y="-115" type="curve"/>
      <point x="155" y="-65"/>
      <point x="152" y="-34"/>
      <point x="131" y="4" type="curve"/>
    </contour>
  </outline>
</glyph>
<glyph name="dvT_KH_NA" format="1">
  <advance width="1337"/>
  <outline>
    <contour>
      <point x="425" y="573" type="line"/>
      <point x="438" y="581"/>
      <point x="446" y="595"/>
      <point x="450" y="608" type="curve"/>
      <point x="438" y="619" type="line"/>
      <point x="34" y="619" type="line"/>
      <point x="21" y="611"/>
      <point x="13" y="597"/>
      <point x="9" y="584" type="curve"/>
      <point x="21" y="573" type="line"/>
    </contour>
    <contour>
      <point x="387" y="335" type="line"/>
      <point x="284" y="344"/>
      <point x="177" y="337"/>
      <point x="82" y="324" type="curve"/>
      <point x="40" y="306"/>
      <point x="17" y="253"/>
      <point x="10" y="214" type="curve"/>
      <point x="36" y="124"/>
      <point x="86" y="65"/>
      <point x="162" y="-3" type="curve"/>
      <point x="189" y="3"/>
      <point x="205" y="18"/>
      <point x="205" y="34" type="curve"/>
      <point x="155" y="82"/>
      <point x="101" y="149"/>
      <point x="83" y="218" type="curve"/>
      <point x="86" y="233"/>
      <point x="92" y="247"/>
      <point x="104" y="261" type="curve"/>
      <point x="191" y="282"/>
      <point x="267" y="291"/>
      <point x="358" y="287" type="curve"/>
    </contour>
    <contour>
      <point x="991" y="573" type="line"/>
      <point x="1004" y="581"/>
      <point x="1012" y="595"/>
      <point x="1016" y="608" type="curve"/>
      <point x="1004" y="619" type="line"/>
      <point x="327" y="619" type="line"/>
      <point x="314" y="611"/>
      <point x="306" y="597"/>
      <point x="302" y="584" type="curve"/>
      <point x="314" y="573" type="line"/>
    </contour>
    <contour>
      <point x="794" y="229" type="curve"/>
      <point x="775" y="229"/>
      <point x="754" y="248"/>
      <point x="754" y="276" type="curve" smooth="yes"/>
      <point x="754" y="328"/>
      <point x="798" y="452"/>
      <point x="852" y="452" type="curve" smooth="yes"/>
      <point x="885" y="452"/>
      <point x="898" y="383"/>
      <point x="895" y="336" type="curve"/>
      <point x="893" y="325" type="line"/>
      <point x="876" y="280"/>
      <point x="830" y="229"/>
    </contour>
    <contour>
      <point x="936" y="325" type="line"/>
      <point x="942" y="406"/>
      <point x="909" y="503"/>
      <point x="849" y="503" type="curve" smooth="yes"/>
      <point x="744" y="503"/>
      <point x="684" y="353"/>
      <point x="684" y="279" type="curve" smooth="yes"/>
      <point x="684" y="233"/>
      <point x="717" y="194"/>
      <point x="762" y="194" type="curve"/>
      <point x="765" y="189" type="line"/>
      <point x="719" y="161"/>
      <point x="624" y="110"/>
      <point x="578" y="110" type="curve" smooth="yes"/>
      <point x="522" y="110"/>
      <point x="442" y="215"/>
      <point x="401" y="266" type="curve"/>
      <point x="406" y="274" type="line"/>
      <point x="525" y="274"/>
      <point x="701" y="395"/>
      <point x="701" y="500" type="curve" smooth="yes"/>
      <point x="701" y="546"/>
      <point x="655" y="619"/>
      <point x="585" y="619" type="curve" smooth="yes"/>
      <point x="509" y="619"/>
      <point x="450" y="579"/>
      <point x="427" y="543" type="curve"/>
      <point x="428" y="527"/>
      <point x="442" y="514"/>
      <point x="463" y="510" type="curve"/>
      <point x="493" y="545"/>
      <point x="538" y="566"/>
      <point x="573" y="566" type="curve" smooth="yes"/>
      <point x="601" y="566"/>
      <point x="627" y="525"/>
      <point x="627" y="494" type="curve" smooth="yes"/>
      <point x="627" y="412"/>
      <point x="520" y="338"/>
      <point x="398" y="325" type="curve"/>
      <point x="387" y="335" type="line"/>
      <point x="347" y="332"/>
      <point x="328" y="299"/>
      <point x="317" y="262" type="curve"/>
      <point x="389" y="180"/>
      <point x="461" y="70"/>
      <point x="570" y="48" type="curve"/>
      <point x="682" y="69"/>
      <point x="880" y="179"/>
      <point x="928" y="300" type="curve"/>
    </contour>
    <contour>
      <point x="1465" y="573" type="line"/>
      <point x="1478" y="581"/>
      <point x="1486" y="595"/>
      <point x="1490" y="608" type="curve"/>
      <point x="1478" y="619" type="line"/>
      <point x="877" y="619" type="line"/>
      <point x="864" y="611"/>
      <point x="856" y="597"/>
      <point x="852" y="584" type="curve"/>
      <point x="864" y="573" type="line"/>
    </contour>
    <contour>
      <point x="1340" y="507" type="line"/>
      <point x="1319" y="530"/>
      <point x="1290" y="541"/>
      <point x="1256" y="543" type="curve"/>
      <point x="1243" y="485" type="line"/>
      <point x="1253" y="480" type="line"/>
      <point x="1145" y="23" type="line"/>
      <point x="1159" y="6"/>
      <point x="1183" y="-5"/>
      <point x="1226" y="0" type="curve"/>
      <point x="1291" y="400" type="line"/>
    </contour>
    <contour>
      <point x="983" y="335" type="line"/>
      <point x="993" y="299"/>
      <point x="998" y="267"/>
      <point x="990" y="227" type="curve"/>
      <point x="981" y="220" type="line"/>
      <point x="946" y="229"/>
      <point x="924" y="248"/>
      <point x="903" y="284" type="curve"/>
      <point x="898" y="250" type="line"/>
      <point x="1032" y="337"/>
      <point x="1152" y="416"/>
      <point x="1286" y="515" type="curve"/>
      <point x="1256" y="543" type="line"/>
      <point x="1141" y="454"/>
      <point x="1004" y="372"/>
      <point x="882" y="297" type="curve"/>
      <point x="867" y="283"/>
      <point x="860" y="264"/>
      <point x="857" y="242" type="curve"/>
      <point x="887" y="192"/>
      <point x="940" y="169"/>
      <point x="992" y="164" type="curve"/>
      <point x="1017" y="172"/>
      <point x="1039" y="186"/>
      <point x="1053" y="200" type="curve"/>
      <point x="1055" y="256"/>
      <point x="1048" y="315"/>
      <point x="1022" y="363" type="curve"/>
    </contour>
  </outline>
</glyph>
<glyph name="dvT_T_VA" format="1">
  <advance width="995"/>
  <outline>
    <contour>
      <point x="465" y="573" type="line"/>
      <point x="478" y="581"/>
      <point x="486" y="595"/>
      <point x="490" y="608" type="curve"/>
      <point x="478" y="619" type="line"/>
      <point x="34" y="619" type="line"/>
      <point x="21" y="611"/>
      <point x="13" y="597"/>
      <point x="9" y="584" type="curve"/>
      <point x="21" y="573" type="line"/>
    </contour>
    <contour>
      <point x="382" y="324" type="line"/>
      <point x="273" y="334"/>
      <point x="173" y="338"/>
      <point x="82" y="324" type="curve"/>
      <point x="40" y="306"/>
      <point x="17" y="253"/>
      <point x="10" y="214" type="curve"/>
      <point x="36" y="124"/>
      <point x="86" y="65"/>
      <point x="162" y="-3" type="curve"/>
      <point x="189" y="3"/>
      <point x="205" y="18"/>
      <point x="205" y="34" type="curve"/>
      <point x="155" y="82"/>
      <point x="101" y="149"/>
      <point x="83" y="218" type="curve"/>
      <point x="86" y="233"/>
      <point x="92" y="247"/>
      <point x="104" y="261" type="curve"/>
      <point x="186" y="287"/>
      <point x="256" y="286"/>
      <point x="353" y="276" type="curve"/>
    </contour>
    <contour>
      <point x="765" y="573" type="line"/>
      <point x="778" y="581"/>
      <point x="786" y="595"/>
      <point x="790" y="608" type="curve"/>
      <point x="778" y="619" type="line"/>
      <point x="334" y="619" type="line"/>
      <point x="321" y="611"/>
      <point x="313" y="597"/>
      <point x="309" y="584" type="curve"/>
      <point x="321" y="573" type="line"/>
    </contour>
    <contour>
      <point x="689" y="430" type="line"/>
      <point x="592" y="377"/>
      <point x="473" y="337"/>
      <point x="382" y="324" type="curve"/>
      <point x="340" y="306"/>
      <point x="317" y="253"/>
      <point x="310" y="214" type="curve"/>
      <point x="336" y="124"/>
      <point x="386" y="65"/>
      <point x="462" y="-3" type="curve"/>
      <point x="489" y="3"/>
      <point x="505" y="18"/>
      <point x="505" y="34" type="curve"/>
      <point x="455" y="82"/>
      <point x="401" y="149"/>
      <point x="383" y="218" type="curve"/>
      <point x="386" y="233"/>
      <point x="392" y="247"/>
      <point x="404" y="261" type="curve"/>
      <point x="476" y="280"/>
      <point x="633" y="337"/>
      <point x="713" y="392" type="curve"/>
    </contour>
    <contour>
      <point x="1123" y="573" type="line"/>
      <point x="1136" y="581"/>
      <point x="1144" y="595"/>
      <point x="1148" y="608" type="curve"/>
      <point x="1136" y="619" type="line"/>
      <point x="613" y="619" type="line"/>
      <point x="600" y="611"/>
      <point x="592" y="597"/>
      <point x="588" y="584" type="curve"/>
      <point x="600" y="573" type="line"/>
    </contour>
    <contour>
      <point x="872" y="316" type="line"/>
      <point x="822" y="261"/>
      <point x="772" y="206"/>
      <point x="722" y="151" type="curve"/>
      <point x="689" y="167"/>
      <point x="673" y="206"/>
      <point x="673" y="248" type="curve" smooth="yes"/>
      <point x="673" y="359"/>
      <point x="741" y="453"/>
      <point x="805" y="453" type="curve" smooth="yes"/>
      <point x="840" y="453"/>
      <point x="866" y="410"/>
      <point x="884" y="362" type="curve"/>
      <point x="912" y="383" type="line"/>
      <point x="890" y="437"/>
      <point x="863" y="504"/>
      <point x="801" y="504" type="curve" smooth="yes"/>
      <point x="687" y="504"/>
      <point x="599" y="372"/>
      <point x="599" y="248" type="curve" smooth="yes"/>
      <point x="599" y="162"/>
      <point x="650" y="107"/>
      <point x="740" y="102" type="curve"/>
      <point x="793" y="168"/>
      <point x="847" y="234"/>
      <point x="900" y="300" type="curve"/>
    </contour>
    <contour>
      <point x="1037" y="619" type="line"/>
      <point x="1021" y="641"/>
      <point x="996" y="649"/>
      <point x="950" y="649" type="curve"/>
      <point x="902" y="423" type="line"/>
      <point x="886" y="415" type="line"/>
      <point x="887" y="382" type="line"/>
      <point x="861" y="269" type="line"/>
      <point x="880" y="253" type="line"/>
      <point x="843" y="196" type="line"/>
      <point x="803" y="23" type="line"/>
      <point x="817" y="6"/>
      <point x="841" y="-5"/>
      <point x="884" y="0" type="curve"/>
      <point x="955" y="441" type="line"/>
    </contour>
  </outline>
</glyph>
<glyph name="dvmI.a09" format="1">
  <advance width="207"/>
  <outline>
    <contour>
      <point x="853" y="689" type="move" name="abvm_Reph_alt"/>
    </contour>
    <contour>
      <point x="186" y="874" type="curve"/>
      <point x="148" y="619" type="line"/>
      <point x="34" y="619" type="line"/>
      <point x="21" y="611"/>
      <point x="13" y="597"/>
      <point x="9" y="584" type="curve"/>
      <point x="21" y="573" type="line"/>
      <point x="139" y="573" type="line"/>
      <point x="5" y="23" type="line"/>
      <point x="19" y="5"/>
      <point x="43" y="-4"/>
      <point x="86" y="0" type="curve"/>
      <point x="111" y="169"/>
      <point x="155" y="383"/>
      <point x="196" y="573" type="curve"/>
      <point x="320" y="573" type="line"/>
      <point x="333" y="581"/>
      <point x="341" y="595"/>
      <point x="345" y="608" type="curve"/>
      <point x="333" y="619" type="line"/>
      <point x="206" y="619" type="line"/>
      <point x="260" y="865" type="line"/>
      <point x="267" y="871" type="line"/>
      <point x="407" y="844"/>
      <point x="698" y="760"/>
      <point x="849" y="662" type="curve"/>
      <point x="874" y="667"/>
      <point x="894" y="685"/>
      <point x="889" y="707" type="curve"/>
      <point x="744" y="797"/>
      <point x="408" y="931"/>
      <point x="285" y="931" type="curve" smooth="yes"/>
      <point x="248" y="931"/>
      <point x="206" y="903"/>
    </contour>
  </outline>
</glyph>
<glyph name="dvmI.a10" format="1">
  <advance width="206"/>
  <outline>
    <contour>
      <point x="899" y="691" type="move" name="abvm_Reph_alt"/>
    </contour>
    <contour>
      <point x="185" y="872" type="curve"/>
      <point x="148" y="619" type="line"/>
      <point x="34" y="619" type="line"/>
      <point x="21" y="611"/>
      <point x="13" y="597"/>
      <point x="9" y="584" type="curve"/>
      <point x="21" y="573" type="line"/>
      <point x="139" y="573" type="line"/>
      <point x="5" y="23" type="line"/>
      <point x="19" y="5"/>
      <point x="43" y="-4"/>
      <point x="86" y="0" type="curve"/>
      <point x="110" y="169"/>
      <point x="154" y="384"/>
      <point x="195" y="573" type="curve"/>
      <point x="320" y="573" type="line"/>
      <point x="333" y="581"/>
      <point x="341" y="595"/>
      <point x="345" y="608" type="curve"/>
      <point x="333" y="619" type="line"/>
      <point x="205" y="619" type="line"/>
      <point x="259" y="864" type="line"/>
      <point x="266" y="870" type="line"/>
      <point x="416" y="846"/>
      <point x="736" y="762"/>
      <point x="898" y="664" type="curve"/>
      <point x="922" y="670"/>
      <point x="942" y="687"/>
      <point x="935" y="709" type="curve"/>
      <point x="780" y="799"/>
      <point x="418" y="929"/>
      <point x="284" y="929" type="curve" smooth="yes"/>
      <point x="247" y="929"/>
      <point x="205" y="900"/>
    </contour>
  </outline>
</glyph>
<glyph name="dvmI.a13" format="1">
  <advance width="206"/>
  <outline>
    <contour>
      <point x="1042" y="699" type="move" name="abvm_Reph_alt"/>
    </contour>
    <contour>
      <point x="184" y="865" type="curve"/>
      <point x="148" y="619" type="line"/>
      <point x="34" y="619" type="line"/>
      <point x="21" y="611"/>
      <point x="13" y="597"/>
      <point x="9" y="584" type="curve"/>
      <point x="21" y="573" type="line"/>
      <point x="139" y="573" type="line"/>
      <point x="5" y="23" type="line"/>
      <point x="19" y="5"/>
      <point x="43" y="-4"/>
      <point x="86" y="0" type="curve"/>
      <point x="111" y="171"/>
      <point x="155" y="385"/>
      <point x="196" y="573" type="curve"/>
      <point x="320" y="573" type="line"/>
      <point x="333" y="581"/>
      <point x="341" y="595"/>
      <point x="345" y="608" type="curve"/>
      <point x="333" y="619" type="line"/>
      <point x="206" y="619" type="line"/>
      <point x="258" y="860" type="line"/>
      <point x="265" y="866" type="line"/>
      <point x="446" y="850"/>
      <point x="850" y="769"/>
      <point x="1045" y="670" type="curve"/>
      <point x="1067" y="677"/>
      <point x="1086" y="696"/>
      <point x="1078" y="717" type="curve"/>
      <point x="888" y="808"/>
      <point x="448" y="925"/>
      <point x="283" y="925" type="curve" smooth="yes"/>
      <point x="247" y="925"/>
      <point x="204" y="894"/>
    </contour>
  </outline>
</glyph>
<glyph name="dvmI.a17" format="1">
  <advance width="206"/>
  <outline>
    <contour>
      <point x="1241" y="678" type="move" name="abvm_Reph_alt"/>
    </contour>
    <contour>
      <point x="183" y="855" type="curve"/>
      <point x="148" y="619" type="line"/>
      <point x="34" y="619" type="line"/>
      <point x="21" y="611"/>
      <point x="13" y="597"/>
      <point x="9" y="584" type="curve"/>
      <point x="21" y="573" type="line"/>
      <point x="139" y="573" type="line"/>
      <point x="5" y="23" type="line"/>
      <point x="19" y="5"/>
      <point x="43" y="-4"/>
      <point x="86" y="0" type="curve"/>
      <point x="111" y="171"/>
      <point x="155" y="385"/>
      <point x="196" y="573" type="curve"/>
      <point x="320" y="573" type="line"/>
      <point x="333" y="581"/>
      <point x="341" y="595"/>
      <point x="345" y="608" type="curve"/>
      <point x="333" y="619" type="line"/>
      <point x="206" y="619" type="line"/>
      <point x="257" y="854" type="line"/>
      <point x="264" y="860" type="line"/>
      <point x="486" y="853"/>
      <point x="1002" y="776"/>
      <point x="1241" y="678" type="curve"/>
      <point x="1262" y="692"/>
      <point x="1269" y="712"/>
      <point x="1260" y="728" type="curve"/>
      <point x="1033" y="817"/>
      <point x="489" y="917"/>
      <point x="282" y="917" type="curve" smooth="yes"/>
      <point x="245" y="917"/>
      <point x="203" y="884"/>
    </contour>
  </outline>
</glyph>
<glyph name="dvmI.a20" format="1">
  <advance width="207"/>
  <outline>
    <contour>
      <point x="1387" y="684" type="move" name="abvm_Reph_alt"/>
    </contour>
    <contour>
      <point x="182" y="848" type="curve"/>
      <point x="148" y="619" type="line"/>
      <point x="34" y="619" type="line"/>
      <point x="21" y="611"/>
      <point x="13" y="597"/>
      <point x="9" y="584" type="curve"/>
      <point x="21" y="573" type="line"/>
      <point x="139" y="573" type="line"/>
      <point x="5" y="23" type="line"/>
      <point x="19" y="5"/>
      <point x="43" y="-4"/>
      <point x="86" y="0" type="curve"/>
      <point x="111" y="173"/>
      <point x="156" y="386"/>
      <point x="196" y="573" type="curve"/>
      <point x="320" y="573" type="line"/>
      <point x="333" y="581"/>
      <point x="341" y="595"/>
      <point x="345" y="608" type="curve"/>
      <point x="333" y="619" type="line"/>
      <point x="206" y="619" type="line"/>
      <point x="256" y="850" type="line"/>
      <point x="263" y="856" type="line"/>
      <point x="515" y="857"/>
      <point x="1116" y="782"/>
      <point x="1387" y="684" type="curve"/>
      <point x="1405" y="691"/>
      <point x="1423" y="713"/>
      <point x="1410" y="732" type="curve"/>
      <point x="1141" y="825"/>
      <point x="519" y="912"/>
      <point x="281" y="912" type="curve" smooth="yes"/>
      <point x="244" y="912"/>
      <point x="201" y="878"/>
    </contour>
  </outline>
</glyph>
